<svg width="466" height="466" viewBox="0 0 466 466" fill="none" xmlns="http://www.w3.org/2000/svg">
<path d="M385.304 82.9055L182.924 87.4902C177.549 87.6138 172.427 89.797 168.615 93.5889C164.804 97.3807 162.594 102.492 162.443 107.866L154.152 401.616C154.094 403.688 154.452 405.751 155.207 407.682C155.962 409.613 157.097 411.373 158.546 412.856C159.994 414.34 161.726 415.517 163.638 416.318C165.551 417.118 167.604 417.526 169.678 417.517L401.725 416.477C403.675 416.468 405.604 416.071 407.399 415.309C409.194 414.546 410.819 413.433 412.179 412.036C413.539 410.638 414.608 408.984 415.321 407.169C416.035 405.354 416.38 403.415 416.336 401.465L409.644 106.17C409.575 103.044 408.89 99.9626 407.629 97.1013C406.367 94.2401 404.555 91.6553 402.294 89.4948C400.034 87.3343 397.37 85.6403 394.455 84.5097C391.539 83.3791 388.43 82.834 385.304 82.9055Z" fill="#B3200E"/>
<path d="M384.703 83.8671C357.151 88.2406 262.377 101.985 183.668 97.7329C182.816 97.6853 181.963 97.8085 181.16 98.0955C180.357 98.3824 179.619 98.8271 178.99 99.4035C178.362 99.9799 177.855 100.676 177.499 101.452C177.144 102.227 176.947 103.066 176.92 103.918L167.934 398.993C167.874 400.936 168.586 402.824 169.914 404.244C171.241 405.664 173.077 406.5 175.02 406.571C208.111 407.779 344.378 412.255 392.807 406.071C394.23 405.887 395.536 405.185 396.474 404.099C397.412 403.014 397.917 401.62 397.892 400.185L392.698 90.5834C392.682 89.5935 392.454 88.6185 392.029 87.7245C391.603 86.8305 390.991 86.0383 390.233 85.4015C389.474 84.7647 388.588 84.2982 387.634 84.0335C386.68 83.7687 385.681 83.712 384.703 83.8671Z" fill="#770508"/>
<path d="M381.915 91.5777C355.401 95.7867 264.196 109.014 188.449 104.93C187.63 104.884 186.809 105.003 186.036 105.279C185.264 105.555 184.554 105.983 183.949 106.538C183.344 107.093 182.856 107.763 182.514 108.509C182.171 109.255 181.982 110.062 181.956 110.882L173.309 394.843C173.25 396.714 173.935 398.531 175.213 399.899C176.49 401.266 178.257 402.072 180.127 402.14C211.973 403.302 343.109 407.61 389.721 401.659C391.091 401.482 392.348 400.807 393.25 399.761C394.153 398.716 394.638 397.375 394.614 395.994L389.61 98.041C389.594 97.0883 389.375 96.1501 388.965 95.2897C388.556 94.4294 387.966 93.667 387.237 93.0542C386.507 92.4413 385.655 91.9924 384.736 91.7376C383.818 91.4829 382.856 91.4284 381.915 91.5777Z" fill="#FDAB76"/>
<path opacity="0.78" d="M365.485 120.466L364.038 181.335C364.016 182.311 363.626 183.242 362.946 183.942C362.266 184.642 361.346 185.059 360.371 185.108C349.117 185.681 314.046 187.333 294.209 186.748C293.126 186.718 292.094 186.281 291.317 185.526C290.541 184.77 290.077 183.75 290.017 182.667C290.621 178.247 284.273 117.988 294.621 120.1L361.132 116.265C361.7 116.231 362.268 116.315 362.801 116.512C363.335 116.71 363.822 117.015 364.231 117.41C364.64 117.805 364.963 118.281 365.179 118.807C365.395 119.333 365.499 119.898 365.485 120.466Z" fill="#FEE9D1"/>
<path d="M314.606 143.371C315.287 160.547 340.844 159.965 340.748 142.778C340.065 125.604 314.506 126.186 314.606 143.371Z" fill="#FA541C"/>
<path d="M348.401 181.003L306.758 181.947C306.179 181.96 305.607 181.816 305.103 181.532C304.598 181.247 304.179 180.832 303.891 180.33C303.602 179.827 303.454 179.257 303.462 178.677C303.47 178.098 303.635 177.532 303.937 177.038C322.556 145.679 363.102 177.075 348.401 181.003Z" fill="#FA541C"/>
<path d="M225.032 156.438C219.392 156.128 208.846 156.173 203.041 156.224C201.847 156.233 200.692 156.648 199.765 157.4C198.838 158.152 198.195 159.197 197.94 160.363C196.925 165.032 195.563 173.13 195.95 181.667C196.004 182.895 196.539 184.052 197.44 184.888C198.341 185.724 199.535 186.171 200.763 186.132L222.174 185.417C223.445 185.374 224.656 184.862 225.571 183.98C226.487 183.097 227.044 181.907 227.133 180.638L228.56 160.455C228.596 159.959 228.533 159.46 228.375 158.989C228.217 158.517 227.966 158.081 227.638 157.708C227.309 157.334 226.91 157.029 226.463 156.811C226.015 156.593 225.529 156.467 225.032 156.438Z" fill="#FEE9D1"/>
<path d="M198.839 129.54C196.021 129.56 196.117 125.522 198.863 125.42L272.299 122.446C273.471 122.398 274.133 123.272 273.768 124.387L273.293 125.84C272.928 126.957 271.67 127.89 270.498 127.916L198.839 129.54Z" fill="#FEE9D1"/>
<path d="M272.559 133.781C274.751 133.781 274.089 135.821 273.552 137.176C273.187 138.291 271.93 139.225 270.758 139.252L199.095 140.874C198.824 140.888 198.553 140.847 198.298 140.753C198.043 140.659 197.81 140.515 197.612 140.329C197.414 140.143 197.256 139.919 197.146 139.671C197.037 139.422 196.979 139.154 196.976 138.882C196.976 137.76 197.949 136.802 199.122 136.754L272.559 133.781Z" fill="#FEE9D1"/>
<path d="M272.82 145.28C275.012 145.28 274.35 147.32 273.813 148.675C273.448 149.79 272.191 150.725 271.019 150.751L199.356 152.375C199.085 152.389 198.814 152.348 198.559 152.254C198.304 152.16 198.07 152.016 197.872 151.83C197.674 151.643 197.516 151.419 197.407 151.17C197.298 150.922 197.24 150.653 197.237 150.382C197.245 149.259 198.21 148.301 199.383 148.255L272.82 145.28Z" fill="#FEE9D1"/>
<path d="M238.363 166.386C235.539 166.408 235.585 162.385 238.327 162.229L272.457 160.224C274.453 160.173 274.436 162 274.076 163.475C273.969 164.058 273.669 164.588 273.224 164.979C272.779 165.37 272.216 165.601 271.624 165.633L238.363 166.386Z" fill="#FEE9D1"/>
<path d="M272.846 173.572C274.842 173.595 274.758 175.421 274.344 176.882C274.215 177.46 273.896 177.978 273.438 178.353C272.979 178.727 272.408 178.937 271.816 178.948L238.55 178.482C237.376 178.467 236.443 177.535 236.474 176.413C236.505 175.29 237.493 174.353 238.665 174.326L272.846 173.572Z" fill="#FEE9D1"/>
<g opacity="0.24">
<path d="M366.362 228.911C362.243 228.689 354.541 228.716 350.301 228.755C349.429 228.761 348.585 229.064 347.908 229.613C347.23 230.162 346.76 230.926 346.575 231.778C345.833 235.194 344.838 241.093 345.122 247.336C345.162 248.233 345.554 249.077 346.212 249.687C346.87 250.297 347.741 250.624 348.638 250.597L364.275 250.073C365.204 250.042 366.087 249.668 366.756 249.023C367.425 248.379 367.832 247.51 367.897 246.583L368.938 231.834C368.963 231.472 368.916 231.109 368.8 230.766C368.684 230.422 368.501 230.105 368.261 229.833C368.022 229.561 367.73 229.34 367.404 229.181C367.078 229.023 366.724 228.931 366.362 228.911Z" fill="#FEE9D1"/>
<path d="M281.158 230.841C277.039 230.619 269.337 230.647 265.097 230.685C264.225 230.692 263.381 230.994 262.704 231.544C262.027 232.093 261.557 232.856 261.371 233.708C260.63 237.124 259.635 243.023 259.919 249.266C259.96 250.163 260.351 251.007 261.009 251.617C261.667 252.227 262.539 252.554 263.436 252.527L279.071 252.005C280 251.974 280.884 251.6 281.553 250.955C282.222 250.311 282.628 249.441 282.694 248.515L283.735 233.766C283.761 233.404 283.714 233.04 283.598 232.697C283.482 232.353 283.298 232.036 283.059 231.764C282.819 231.492 282.527 231.27 282.201 231.111C281.875 230.953 281.52 230.861 281.158 230.841Z" fill="#FEE9D1"/>
</g>
<path d="M193.523 207.998C190.707 207.998 190.966 203.944 193.7 203.895C194.548 205.466 368.617 195.461 365.984 200.288C364.787 201.982 363.234 204.202 360.916 204.205L193.523 207.998Z" fill="#FEE9D1"/>
<path d="M365.4 210C368.207 210.014 365.173 212.893 364.595 213.799C363.886 214.731 362.346 215.52 361.172 215.546L193.779 219.339C192.607 219.365 191.688 218.468 191.736 217.344C191.784 216.22 192.784 215.273 193.956 215.235L365.4 210Z" fill="#FEE9D1"/>
<path d="M337.815 235.59C340.591 235.449 339.414 238.984 339.292 240.574C339.201 241.155 338.913 241.688 338.476 242.082C338.039 242.476 337.479 242.708 336.892 242.738L298.429 243.609C296.625 243.627 296.1 241.932 296.265 240.404C296.266 239.831 296.484 239.279 296.874 238.858C297.264 238.438 297.798 238.179 298.37 238.134L337.815 235.59Z" fill="#FEE9D1"/>
<path d="M252.61 237.523C255.387 237.382 254.21 240.916 254.088 242.506C253.997 243.087 253.709 243.62 253.271 244.014C252.834 244.409 252.274 244.64 251.686 244.67L213.225 245.541C211.421 245.559 210.896 243.866 211.059 242.338C211.061 241.764 211.278 241.212 211.669 240.791C212.059 240.37 212.593 240.111 213.166 240.066L252.61 237.523Z" fill="#FEE9D1"/>
<path d="M204.403 283.531C201.585 283.531 201.837 279.479 204.572 279.427L371.096 274.304C372.268 274.268 372.658 275.01 371.96 275.954L370.388 278.084C369.692 279.027 368.161 279.822 366.989 279.848L204.403 283.531Z" fill="#FEE9D1"/>
<path d="M371.352 285.638C374.125 285.647 371.231 288.493 370.646 289.417C369.948 290.361 368.419 291.154 367.245 291.18L204.659 294.865C203.487 294.891 202.565 293.994 202.612 292.869C202.658 291.745 203.656 290.797 204.829 290.761L371.352 285.638Z" fill="#FEE9D1"/>
<path d="M371.613 297.137C374.386 297.147 371.492 299.994 370.907 300.916C370.209 301.86 368.68 302.654 367.506 302.681L204.921 306.364C203.747 306.391 202.826 305.493 202.873 304.371C202.919 303.248 203.916 302.298 205.09 302.262L371.613 297.137Z" fill="#FEE9D1"/>
<path d="M270.896 74.3063L293.813 71.7477L295.265 50.6423C295.41 48.5819 294.837 46.5349 293.642 44.8499C292.447 43.1649 290.705 41.9463 288.713 41.4015C284.211 40.1828 277.845 40.2262 270.655 45.477C256.546 55.7766 270.896 74.3063 270.896 74.3063ZM275.284 56.646C275.242 49.1161 286.437 48.8631 286.735 56.3867C286.777 63.9151 275.582 64.1681 275.284 56.646Z" fill="#FA541C"/>
<path d="M291.267 62.9404C291.194 62.9357 291.123 62.9166 291.058 62.8844C290.993 62.8521 290.935 62.8073 290.887 62.7524C290.839 62.6976 290.803 62.6338 290.78 62.5648C290.757 62.4958 290.747 62.423 290.753 62.3504L290.984 58.9892C290.988 58.9163 291.007 58.845 291.039 58.7794C291.071 58.7139 291.116 58.6554 291.171 58.6074C291.226 58.5594 291.29 58.5228 291.359 58.4999C291.428 58.4769 291.501 58.468 291.574 58.4737C291.721 58.4837 291.857 58.5514 291.954 58.662C292.051 58.7727 292.099 58.9171 292.089 59.0637L291.858 62.425C291.848 62.5716 291.78 62.7083 291.669 62.8049C291.558 62.9015 291.413 62.9502 291.267 62.9404ZM291.72 56.3545C291.647 56.3496 291.576 56.3303 291.511 56.2979C291.446 56.2655 291.388 56.2205 291.34 56.1655C291.292 56.1106 291.256 56.0467 291.233 55.9776C291.21 55.9085 291.201 55.8356 291.206 55.763C292.815 46.8715 285.797 43.7229 278.09 45.4106C277.396 45.5829 277.138 44.479 277.845 44.3238C286.201 42.4017 294.046 46.2986 292.31 55.8328C292.306 55.9059 292.287 55.9775 292.255 56.0434C292.223 56.1093 292.179 56.1682 292.124 56.2167C292.069 56.2652 292.005 56.3023 291.936 56.326C291.866 56.3496 291.793 56.3593 291.72 56.3545Z" fill="#FDAB76"/>
<path d="M325.46 84.6496C324.949 78.9968 327.416 67.4691 318.391 67.7532L245.437 71.9094C237.478 72.3643 239.748 82.9185 239.133 88.1398L325.46 84.6496Z" fill="#770508"/>
<path d="M297.941 72.208L301.085 72.1319C301.804 72.1319 301.779 70.997 301.061 71.0234L297.921 71.0948C297.204 71.1057 297.222 72.2344 297.941 72.208Z" fill="#FDAB76"/>
<path d="M321.433 81.4154C321.506 81.4138 321.578 81.3979 321.644 81.3685C321.711 81.3391 321.771 81.297 321.822 81.2443C321.872 81.1917 321.911 81.1297 321.938 81.0618C321.964 80.9939 321.977 80.9215 321.975 80.8487C322.939 66.9488 313.469 71.4201 304.195 70.959C303.483 70.9683 303.498 72.0939 304.222 72.0675L315.765 71.8067C317.062 71.7792 318.318 72.2673 319.256 73.1639C320.194 74.0606 320.739 75.2927 320.77 76.5901L320.867 80.8736C320.87 81.0204 320.932 81.1599 321.038 81.2614C321.144 81.363 321.286 81.4183 321.433 81.4154Z" fill="#FDAB76"/>
<path d="M348.25 80.2569L220.578 83.1462C218.354 83.1963 216.219 84.0302 214.551 85.5007C212.882 86.9713 211.786 88.984 211.456 91.1837C210.334 96.318 214.268 101.255 219.562 101.12L350.546 98.1531C356.996 97.6873 355.626 91.1666 355.269 86.6549C355.146 84.8908 354.347 83.242 353.04 82.0507C351.734 80.8594 350.018 80.217 348.25 80.2569Z" fill="#FA541C"/>
<path d="M245.909 335.783L228.892 294.459C228.731 294.068 228.458 293.734 228.107 293.499C227.756 293.264 227.343 293.139 226.92 293.139H216.456C216.099 293.14 215.747 293.23 215.434 293.401C215.12 293.573 214.855 293.82 214.662 294.121C214.469 294.422 214.355 294.766 214.33 295.122C214.305 295.479 214.37 295.836 214.518 296.161L234.245 339.202C234.448 339.645 234.798 340.006 235.235 340.223C235.672 340.44 236.17 340.5 236.647 340.394L244.397 338.672C244.7 338.605 244.985 338.472 245.232 338.283C245.478 338.095 245.681 337.854 245.825 337.579C245.969 337.304 246.051 337.001 246.065 336.69C246.08 336.38 246.027 336.071 245.909 335.783Z" fill="#116E95"/>
<path d="M272.093 384.475H267.083V438.661H272.093V384.475Z" fill="#22B8CF"/>
<path d="M291.529 439.704H247.646V436.966C247.646 436.828 247.701 436.695 247.799 436.596C247.897 436.498 248.03 436.443 248.169 436.443H291.006C291.144 436.443 291.277 436.498 291.376 436.596C291.474 436.695 291.529 436.828 291.529 436.966V439.704Z" fill="#22B8CF"/>
<path d="M298.042 382.594C298.038 384.022 297.469 385.39 296.46 386.399C295.45 387.409 294.082 387.978 292.655 387.982H248.252C242.305 387.671 242.737 382.15 242.864 377.723C242.868 376.295 243.437 374.926 244.446 373.917C245.456 372.907 246.824 372.338 248.252 372.334H292.655C298.601 372.652 298.169 378.165 298.042 382.594Z" fill="#77F0ED"/>
<path d="M232.599 348.347C232.599 348.347 225.147 349.502 216.782 355.097C216.134 355.525 215.619 356.125 215.294 356.829C214.969 357.534 214.846 358.315 214.941 359.086C215.944 367.025 220.064 392.723 233.655 417.823C235.756 420.792 232.174 429.972 231.899 433.147L227.521 437.252H238.799L246.308 416.93C242.692 415.999 238.918 414.614 238.856 410.228C238.513 399.245 240.162 378.09 232.525 372.015L250.534 371.14L232.599 348.347Z" fill="#FF928E"/>
<path d="M223.118 439.234C222.09 440.579 234.172 442.352 240.277 439.411C240.277 439.411 248.738 424.69 248.738 417.11C248.738 417.11 248.066 415.566 243.098 415.915C243.098 415.915 240.257 433.347 237.257 435.299C234.258 437.25 228.864 435.497 228.864 435.497C228.864 435.497 224.634 437.25 223.118 439.234Z" fill="#770508"/>
<path d="M248.255 372.334C248.158 372.168 228.863 370.014 228.863 370.014C233.751 386.114 201.66 420.519 197.216 427.026L200.186 436.443C191.001 439.642 181.967 440.154 173.077 438.073L191.487 427.026C191.487 427.026 208.721 368.311 219.278 357.836L238.62 351.145L248.255 372.334Z" fill="#FDBAB9"/>
<path d="M291.529 338.17C295.058 344.39 318.104 374.255 288.848 373.36C277.184 373.868 246.043 373.859 246.043 373.859L219.465 351.145C219.465 351.145 238.828 344.233 243.869 342.277C248.91 340.321 291.529 338.17 291.529 338.17Z" fill="#B3200E"/>
<path d="M199.063 433.271C199.063 433.271 202.262 436.376 200.102 439.815C200.102 439.815 174.766 444.307 167.888 442.268C167.888 442.268 169.317 439.008 177.062 435.297C170.956 440.213 196.795 434.964 199.063 433.271Z" fill="#770508"/>
<path d="M261.464 335.981C261.464 335.981 248.517 323.653 242.144 315.487C240.449 313.309 239.298 310.757 238.788 308.045C238.278 305.332 238.423 302.537 239.211 299.892C242.121 290.09 247.285 279.937 247.763 278.358C248.486 275.936 263.003 276.037 263.003 276.037C263.003 276.037 291.57 294.576 302.79 325.979L290.186 329.903C290.186 329.903 282.734 317.39 275.358 309.435C275.358 309.435 288.109 326.28 288.554 333.175L261.464 335.981Z" fill="#FA541C"/>
<path d="M246.007 264.828C246.163 265.331 249.948 277.893 250.244 278.153C250.541 278.414 258.553 278.844 262.325 276.267L255.927 262.872L246.007 264.828Z" fill="#FF928E"/>
<path d="M241.325 246.4C241.325 246.4 236.832 251.311 236.739 261.103C236.739 279.473 251.954 272.837 257.273 260.774C260.509 252.991 247.289 240.286 241.325 246.4Z" fill="#FDBAB9"/>
<path d="M253.295 258.983C252.245 248.781 263.308 252.43 255.313 261.675L253.295 258.983Z" fill="#FDBAB9"/>
<path d="M235.089 336.895L244.601 327.728L257.759 333.287C257.759 333.287 270.856 335.316 278.354 333.287L285.849 331.258L302.789 325.979C305.286 333.978 308.999 336.746 299.518 341.364C297.287 342.34 244.525 340.69 244.525 340.69L235.089 336.895Z" fill="#FDBAB9"/>
<path d="M251.521 258.209C251.521 258.209 250.318 244.498 239.809 249.153L238.14 251.999C225.6 242.351 248.328 228.756 258.255 240.932C268.452 249.926 264.342 268.428 256.636 262.811C256.636 262.811 257.32 257.905 255.393 256.329C253.467 254.753 252.323 258.246 252.323 258.246L251.521 258.209Z" fill="#770508"/>
<path d="M258.046 242.633C256.074 241.877 255.883 239.158 257.644 237.992C277.672 222.532 293.188 260.551 304.053 260.97C306.381 260.931 307.74 263.565 306.207 265.317C305.074 266.614 303.133 267.78 299.913 268.478C275.071 273.867 269.617 247.064 258.046 242.633Z" fill="#770508"/>
<path d="M86.4993 442.648C85.1315 442.678 84.0354 441.219 84.6363 439.964L127.021 346.161C127.25 345.684 127.653 345.314 128.147 345.126C128.641 344.939 129.188 344.948 129.676 345.153C129.915 345.244 130.134 345.383 130.318 345.561C130.503 345.739 130.649 345.953 130.748 346.19C130.847 346.426 130.897 346.68 130.895 346.936C130.892 347.193 130.838 347.446 130.735 347.681L88.3562 441.486C88.1906 441.837 87.9275 442.133 87.5983 442.339C87.2692 442.546 86.8877 442.653 86.4993 442.648Z" fill="#22B8CF"/>
<path d="M134.239 442.649C133.849 442.654 133.466 442.547 133.136 442.341C132.805 442.134 132.542 441.837 132.376 441.484L90.005 347.681C89.9017 347.446 89.8472 347.193 89.8448 346.937C89.8424 346.68 89.8922 346.426 89.9911 346.19C90.09 345.954 90.236 345.74 90.4201 345.561C90.6043 345.383 90.8228 345.244 91.0623 345.153C91.5496 344.948 92.0969 344.939 92.5911 345.126C93.0852 345.314 93.4884 345.684 93.7172 346.161L136.094 439.964C136.698 441.206 135.613 442.692 134.239 442.649Z" fill="#22B8CF"/>
<path d="M260.841 442.648C259.475 442.678 258.378 441.219 258.988 439.964L301.372 346.161C301.601 345.684 302.004 345.314 302.498 345.126C302.993 344.939 303.54 344.948 304.027 345.153C304.267 345.244 304.485 345.383 304.669 345.561C304.853 345.74 304.999 345.954 305.098 346.19C305.197 346.426 305.247 346.68 305.245 346.937C305.242 347.193 305.188 347.446 305.084 347.681L262.7 441.484C262.534 441.836 262.271 442.133 261.942 442.339C261.612 442.546 261.23 442.653 260.841 442.648Z" fill="#22B8CF"/>
<path d="M308.582 442.649C308.193 442.654 307.81 442.547 307.48 442.341C307.149 442.134 306.885 441.837 306.719 441.484L264.335 347.681C264.231 347.446 264.177 347.193 264.175 346.937C264.172 346.68 264.222 346.426 264.321 346.19C264.42 345.954 264.566 345.74 264.75 345.561C264.934 345.383 265.152 345.244 265.392 345.153C265.879 344.948 266.427 344.939 266.921 345.126C267.415 345.314 267.818 345.684 268.047 346.161L310.432 439.964C311.04 441.206 309.956 442.692 308.582 442.649Z" fill="#22B8CF"/>
<path d="M322.144 343.236C322.439 341.855 321.143 340.654 319.755 340.696H73.7733C71.949 340.624 70.3095 342.484 71.2318 344.183C72.7501 346.431 73.7624 351.358 77.2867 351.146H318.067C319.421 351.146 320.585 350.303 320.841 349.137L322.144 343.236Z" fill="#77F0ED"/>
<path d="M43.0141 375.954C41.5267 378.152 35.6208 427.939 34.6971 446.328C34.639 446.902 34.8114 447.476 35.1764 447.923C35.5414 448.37 36.069 448.654 36.6432 448.712C37.2174 448.77 37.7912 448.597 38.2382 448.232C38.6853 447.867 38.9691 447.34 39.0271 446.766L49.8298 377.537L43.0141 375.954Z" fill="#22B8CF"/>
<path d="M90.5003 375.954C91.986 378.152 97.892 427.939 98.8157 446.328C98.8302 446.622 98.7848 446.916 98.6821 447.192C98.5793 447.468 98.4215 447.721 98.2182 447.934C98.0149 448.148 97.7704 448.317 97.4995 448.433C97.2285 448.549 96.9368 448.609 96.6421 448.608C95.2449 448.796 94.3133 446.772 94.4856 446.745C94.2745 445.39 83.6861 377.539 83.6861 377.539L90.5003 375.954Z" fill="#22B8CF"/>
<path d="M34.0792 372.068C33.7687 376.195 37.1843 379.722 41.6168 379.792L91.5499 380.641C95.703 380.711 99.1574 377.712 99.3654 373.866C99.8467 369.662 96.4032 365.977 91.8651 365.901L41.9118 365.007C37.6361 364.929 34.1149 368.104 34.0792 372.068Z" fill="#77F0ED"/>
<path d="M118.647 438.332C110.717 438.332 107.208 437.652 105.638 437.033C105.792 437.694 106.166 438.285 106.698 438.708C107.23 439.13 107.89 439.361 108.569 439.361H136.626C136.835 439.361 137.042 439.313 137.23 439.219C137.418 439.126 137.582 438.991 137.709 438.825C137.836 438.658 137.923 438.464 137.963 438.258C138.003 438.053 137.996 437.84 137.941 437.638C134.744 437.896 127.95 438.332 118.647 438.332Z" fill="#063963"/>
<path d="M137.94 437.64C131.23 426.064 117.121 432.166 107.254 430.282C107.034 431.422 105.202 435.916 105.638 437.033C109.301 439.201 135.337 438.022 137.94 437.64Z" fill="#063963"/>
<path d="M109.18 424.683L107.254 431.23C107.254 431.23 111.519 433.172 115.272 431.613L116.008 425.94L109.18 424.683Z" fill="#FF928E"/>
<path d="M166.5 432.5C160.318 437.468 157.988 440.847 156.378 441.351C156.912 441.769 157.572 441.994 158.25 441.99C158.928 441.986 159.585 441.753 160.113 441.328L181.984 423.755C182.148 423.624 182.279 423.458 182.367 423.268C182.456 423.079 182.499 422.872 182.495 422.662C182.49 422.453 182.437 422.248 182.34 422.063C182.243 421.878 182.105 421.717 181.936 421.594C179.604 423.784 173.752 426.672 166.5 432.5Z" fill="#063963"/>
<path d="M181.938 421.587C169.491 416.808 162.28 430.396 153.43 435.094C153.969 436.115 155.343 440.75 156.38 441.343C160.58 440.737 180.142 423.515 181.938 421.587Z" fill="#063963"/>
<path d="M67.9966 350.083C146.751 356.448 131.856 355.333 117.268 427.4C117.268 427.4 114.617 428.676 108.717 426.842C108.717 426.842 114.772 379.416 110.269 369.132L58.8599 360.724L67.9966 350.083Z" fill="#063963"/>
<path d="M148.713 426.073C149.154 426.475 153.43 435.101 153.43 435.101C153.43 435.101 158.192 434.07 159.162 431.064L154.879 423.278L148.713 426.073Z" fill="#FF928E"/>
<path d="M39.3983 349.684C35.9144 357.291 38.2929 370.452 50.3375 371.09L106.467 373.651C107.042 373.677 107.594 373.887 108.041 374.25C108.489 374.614 108.807 375.111 108.951 375.669C110.271 380.771 116.714 396.439 148.23 427.701C150.33 429.991 153.975 426.06 155.86 425.217C156.087 425.074 156.25 424.848 156.313 424.587C156.376 424.326 156.336 424.051 156.2 423.82L123.519 368.01C121.802 365.177 119.043 363.131 115.833 362.311L67.9931 350.081L39.3983 349.684Z" fill="#063963"/>
<path d="M39.2459 349.521C39.2459 349.521 38.6901 321.701 44.2513 295.519C46.459 284.69 53.0667 275.393 62.0109 269.032L75.0197 274.311C95.0259 300.413 76.3177 326.05 71.7594 349.92C71.7734 349.928 50.2224 352.774 39.2459 349.521Z" fill="#116E95"/>
<path d="M70.9555 248.299L60.7925 271.876C60.7925 271.876 64.0528 279.195 75.4268 276.349L79.4914 260.087L70.9555 248.299Z" fill="#FDBAB9"/>
<path d="M91.095 237.544C91.2177 237.873 91.4863 261.102 91.4863 261.102L78.2197 260.973L74.6938 238.995C74.6938 238.995 89.0441 232.031 91.095 237.544Z" fill="#FDBAB9"/>
<path d="M78.5857 243.225L79.5359 254.94C79.8138 256.153 81.0543 259.112 84.1532 257.605C86.7661 256.207 89.171 254.984 91.0512 255.142C91.4582 255.176 91.838 255.36 92.1162 255.659C92.3945 255.958 92.5512 256.35 92.5556 256.758C92.5789 258.87 92.5462 263.625 91.8849 267.754C91.8185 268.158 91.6031 268.522 91.2813 268.775C90.9594 269.029 90.5544 269.152 90.146 269.121C89.1306 268.868 77.7256 268.511 76.9167 265.695C76.4168 262.793 74.8643 253.981 74.0523 251.592C72.8568 248.39 69.154 249.12 67.7676 247.662C63.9871 241.497 71.3897 241.927 69.8247 238.694C68.8404 237.117 68.016 234.562 70.9115 232.43C75.8796 228.837 78.1479 234.352 80.382 232.404C80.7065 232.084 81.1738 231.902 81.8368 232.14C82.0503 232.212 82.2766 232.239 82.5011 232.218C82.7256 232.198 82.9434 232.131 83.1404 232.021C83.3375 231.912 83.5095 231.762 83.6454 231.582C83.7813 231.402 83.8781 231.196 83.9296 230.977C86.7242 222.789 97.856 227.954 96.0736 236.89C95.375 240.894 88.9878 240.808 85.5334 239.612C82.9344 238.684 78.6044 241.216 78.5857 243.225Z" fill="#063963"/>
<path d="M74.4408 255.851C74.4408 255.851 75.3599 248.822 72.6212 247.743C63.3059 245.587 69.527 259.89 74.4408 255.851Z" fill="#FDBAB9"/>
<path d="M102.268 327.177C68.7651 337.694 70.5474 290.537 70.33 290.208C57.048 269.913 49.5911 296.958 50.8781 300.765C62.6573 343.414 92.3545 341.302 103.926 332.925C102.485 330.689 102.156 328.717 102.268 327.177Z" fill="#116E95"/>
<path d="M76.5864 319.903C72.705 316.953 67.2229 293.606 70.1231 291.932C70.3491 291.924 70.5692 292.006 70.7351 292.159C70.901 292.313 70.9992 292.526 71.0081 292.752C71.2534 298.987 72.4302 310.641 77.5567 318.629C77.9976 319.265 77.3052 320.16 76.5864 319.903Z" fill="#063963"/>
<path d="M67.2294 330.619C59.2664 324.29 53.6027 314.054 49.7881 300.49C49.7559 300.381 49.7457 300.267 49.758 300.155C49.7703 300.042 49.8049 299.933 49.8598 299.834C49.9147 299.735 49.9888 299.648 50.0777 299.578C50.1667 299.508 50.2687 299.456 50.3778 299.426C50.4869 299.396 50.601 299.388 50.7133 299.402C50.8256 299.416 50.9339 299.453 51.0319 299.51C51.1299 299.566 51.2157 299.642 51.2842 299.732C51.3526 299.822 51.4024 299.925 51.4307 300.035C55.0574 313.165 60.642 322.961 68.029 329.151C68.7432 329.703 68.0756 330.918 67.2294 330.619Z" fill="#063963"/>
<path d="M121.742 317.001C122.674 316.846 107.268 329.298 112.402 321.526C115.401 317.349 113.942 315.193 110.52 319.694C105.072 326.138 105.919 325.472 102.02 326.848C101.908 328.388 102.237 330.36 103.678 332.602C114.187 329.282 118.277 329.995 121.742 317.001Z" fill="#FDBAB9"/>
<path d="M197.791 295.286C52.8851 227.32 204.622 162.262 223.111 235.709C225.761 268.611 162.003 260.893 197.791 295.286Z" fill="#22B8CF"/>
<path d="M147.24 230.518H185.158C185.388 230.518 185.608 230.427 185.77 230.264C185.933 230.102 186.024 229.882 186.024 229.652C186.024 229.422 185.933 229.202 185.77 229.039C185.608 228.877 185.388 228.786 185.158 228.786H147.24C146.127 228.768 146.108 230.535 147.24 230.518Z" fill="#D2FCF4"/>
<path d="M196.417 230.518H207.668C207.898 230.518 208.118 230.427 208.281 230.264C208.443 230.102 208.535 229.882 208.535 229.652C208.535 229.422 208.443 229.202 208.281 229.039C208.118 228.877 207.898 228.786 207.668 228.786H196.417C195.296 228.768 195.291 230.535 196.417 230.518Z" fill="#D2FCF4"/>
<path d="M145.963 238.194H160.201C160.318 238.199 160.434 238.18 160.544 238.139C160.653 238.098 160.753 238.035 160.837 237.954C160.922 237.873 160.989 237.776 161.035 237.669C161.08 237.561 161.104 237.446 161.104 237.329C161.104 237.212 161.08 237.096 161.035 236.989C160.989 236.881 160.922 236.784 160.837 236.703C160.753 236.623 160.653 236.56 160.544 236.518C160.434 236.477 160.318 236.458 160.201 236.463H145.963C144.843 236.446 144.835 238.211 145.963 238.194Z" fill="#D2FCF4"/>
<path d="M181.092 238.194H206.398C206.515 238.199 206.631 238.18 206.741 238.139C206.85 238.098 206.95 238.035 207.034 237.954C207.119 237.873 207.186 237.776 207.232 237.669C207.278 237.561 207.301 237.446 207.301 237.329C207.301 237.212 207.278 237.096 207.232 236.989C207.186 236.881 207.119 236.784 207.034 236.703C206.95 236.623 206.85 236.56 206.741 236.518C206.631 236.477 206.515 236.458 206.398 236.463H181.092C179.975 236.446 179.963 238.211 181.092 238.194Z" fill="#D2FCF4"/>
<path d="M144.684 245.871H182.534C182.763 245.871 182.984 245.78 183.146 245.617C183.309 245.455 183.4 245.234 183.4 245.005C183.4 244.775 183.309 244.554 183.146 244.392C182.984 244.23 182.763 244.138 182.534 244.138H144.684C143.572 244.121 143.552 245.888 144.684 245.871Z" fill="#D2FCF4"/>
<path d="M192.011 245.871H205.113C205.342 245.871 205.563 245.78 205.725 245.617C205.888 245.455 205.979 245.234 205.979 245.005C205.979 244.775 205.888 244.554 205.725 244.392C205.563 244.23 205.342 244.138 205.113 244.138H192.011C190.89 244.121 190.884 245.888 192.011 245.871Z" fill="#D2FCF4"/>
</svg>
