<svg width="72" height="72" viewBox="0 0 72 72" fill="none" xmlns="http://www.w3.org/2000/svg">
<g clip-path="url(#clip0_21778_13221)">
<path d="M59.1637 53.979H56.1533V51.1358C56.1533 50.6739 55.7788 50.2995 55.317 50.2995H54.373V34.4112H55.317C55.7788 34.4112 56.1533 34.0368 56.1533 33.5749V30.7318H57.4911C57.9529 30.7318 58.3273 30.3574 58.3273 29.8956V26.5507H59.1636C59.6255 26.5507 59.9999 26.1763 59.9999 25.7144V21.5332C59.9999 21.1827 59.7815 20.8695 59.4526 20.7484L36.289 12.2189C36.1025 12.1502 35.8975 12.1502 35.711 12.2189L12.5473 20.7484C12.2184 20.8695 12 21.1828 12 21.5332V25.7144C12 26.1763 12.3744 26.5507 12.8363 26.5507H13.6725V29.8956C13.6725 30.3574 14.047 30.7318 14.5088 30.7318H15.8466V33.5749C15.8466 34.0368 16.2211 34.4112 16.6829 34.4112H17.6269V50.2995H16.6829C16.2211 50.2995 15.8466 50.6739 15.8466 51.1358V53.979H12.8363C12.3744 53.979 12 54.3534 12 54.8152V58.9964C12 59.4582 12.3744 59.8327 12.8363 59.8327H59.1637C59.6256 59.8327 60 59.4582 60 58.9964V54.8152C60 54.3534 59.6256 53.979 59.1637 53.979ZM54.4807 51.972V53.979H46.1186V51.972H54.4807ZM41.0173 50.2995H40.0733V34.4112H41.0173C41.4791 34.4112 41.8536 34.0368 41.8536 33.5749V30.7318H44.446V33.5749C44.446 34.0368 44.8204 34.4112 45.2823 34.4112H46.2263V50.2995H45.2823C44.8204 50.2995 44.446 50.6739 44.446 51.1358V53.979H41.8536V51.1358C41.8536 50.6739 41.4791 50.2995 41.0173 50.2995ZM26.7177 50.2995H25.7737V34.4112H26.7177C27.1796 34.4112 27.554 34.0368 27.554 33.5749V30.7318H30.1464V33.5749C30.1464 34.0368 30.5209 34.4112 30.9827 34.4112H31.9267V50.2995H30.9827C30.5209 50.2995 30.1464 50.6739 30.1464 51.1358V53.979H27.554V51.1358C27.554 50.6739 27.1796 50.2995 26.7177 50.2995ZM31.8189 32.7387V30.7318H40.1811V32.7387H31.8189ZM38.4009 34.4112V50.2995H33.5991V34.4112H38.4009ZM31.8189 51.972H40.1811V53.979H31.8189V51.972ZM47.8989 50.2995V34.4112H52.7006V50.2995H47.8989ZM54.4807 32.7387H46.1186V30.7318H54.4807V32.7387ZM15.3451 29.0593V26.5507H18.2135C18.6753 26.5507 19.0498 26.1763 19.0498 25.7144C19.0498 25.2526 18.6753 24.8782 18.2135 24.8782H13.6725V22.1165L36 13.8949L58.3275 22.1165V24.8782H23.1592C22.6974 24.8782 22.3229 25.2526 22.3229 25.7144C22.3229 26.1763 22.6974 26.5507 23.1592 26.5507H56.6549V29.0593H15.3451ZM17.5193 32.7387V30.7318H25.8814V32.7387H17.5193ZM24.1011 34.4112V50.2995H19.2994V34.4112H24.1011ZM17.5193 51.972H25.8814V53.979H17.5193V51.972ZM58.3275 58.1601H13.6725V55.6515H58.3275V58.1601Z" fill="#212B36"/>
<path d="M19.8781 26.0337C19.8993 26.085 19.857 25.9836 19.8781 26.0337Z" fill="#212B36"/>
<path d="M20.0588 25.1227C19.8261 25.3625 19.7469 25.7227 19.8781 26.0337C19.9202 26.1355 19.9822 26.2269 20.0588 26.3058C20.3884 26.6257 20.9123 26.6261 21.2418 26.3058C21.5617 25.9768 21.5617 25.4518 21.2418 25.1227C20.9127 24.8027 20.388 24.8032 20.0588 25.1227Z" fill="#212B36"/>
</g>
<defs>
<clipPath id="clip0_21778_13221">
<rect width="48" height="48" fill="white" transform="translate(12 12)"/>
</clipPath>
</defs>
</svg>
