<svg width="72" height="72" viewBox="0 0 72 72" fill="none" xmlns="http://www.w3.org/2000/svg">
<g clip-path="url(#clip0_21778_13205)">
<path d="M50.9537 53.8065L49.1615 48.4289C48.5351 46.5515 46.9372 45.1657 44.9893 44.8111L39.8154 43.8697V43.4686C40.7158 42.9461 41.4993 42.247 42.1233 41.4194H43.6864C44.9669 41.4194 46.0089 40.3773 46.0089 39.0968V29.8065C46.0089 24.257 41.4938 19.7419 35.9444 19.7419C30.395 19.7419 25.8799 24.257 25.8799 29.8065V35.2258C25.8799 36.7185 26.9413 37.9672 28.3488 38.2583C28.7831 40.4834 30.1736 42.3662 32.0735 43.4686V43.8697L26.8988 44.8111C24.9517 45.1657 23.3529 46.5515 22.7274 48.4289L22.4177 49.3587L19.7808 46.7218C19.4789 46.4199 19.4789 45.9283 19.7808 45.6263L22.8389 42.569L17.099 36.8292L13.643 40.2852C12.6195 41.3086 12.0559 42.6697 12.0559 44.1174C12.0559 45.5652 12.6195 46.9254 13.643 47.9489L24.1062 58.4121C25.1297 59.4356 26.4908 60 27.9385 60C29.3862 60 30.7465 59.4356 31.746 58.4354L35.5171 54.9801L34.3411 53.8065H50.9537ZM44.4606 39.0968C44.4606 39.5241 44.1129 39.871 43.6864 39.871H43.0353C43.2598 39.3592 43.4301 38.8196 43.54 38.2583C43.8714 38.1894 44.1764 38.0578 44.4606 37.8921V39.0968ZM43.6864 36.559V33.8926C44.147 34.1613 44.4606 34.6552 44.4606 35.2258C44.4606 35.7964 44.147 36.2903 43.6864 36.559ZM28.2025 36.559C27.7418 36.2903 27.4283 35.7964 27.4283 35.2258C27.4283 34.6552 27.7418 34.1613 28.2025 33.8926V36.559ZM28.2025 31.3548V32.239C27.9269 32.311 27.6683 32.4194 27.4283 32.5595V29.8065C27.4283 25.111 31.2489 21.2903 35.9444 21.2903C40.6399 21.2903 44.4606 25.111 44.4606 29.8065V32.5595C44.2206 32.4194 43.962 32.3102 43.6864 32.239V31.3548H42.9122C40.6229 31.3548 38.4706 30.463 36.851 28.8441L35.9444 27.9375L35.0378 28.8441C33.4182 30.463 31.266 31.3548 28.9767 31.3548H28.2025ZM29.7509 36.7742V32.8738C32.0758 32.6988 34.2435 31.7396 35.9444 30.1223C37.6453 31.7396 39.8131 32.6996 42.138 32.8738V36.7742C42.138 37.903 41.8298 38.959 41.3003 39.871H35.9444V41.4194H40.0275C38.9359 42.3801 37.5091 42.9677 35.9444 42.9677C32.5295 42.9677 29.7509 40.1892 29.7509 36.7742ZM38.267 44.1592V44.1956L35.9444 46.5182L33.6218 44.1956V44.1592C34.3558 44.3899 35.1354 44.5161 35.9444 44.5161C36.7535 44.5161 37.5331 44.3899 38.267 44.1592ZM24.1953 48.9182C24.642 47.5773 25.7839 46.5871 27.1751 46.3332L32.5868 45.3499L35.9444 48.7076L39.3013 45.3507L44.7122 46.3339C46.1034 46.5879 47.2453 47.5773 47.692 48.919L48.8061 52.2581H32.7927L29.7772 49.2426L26.4265 52.2736C26.1346 52.567 25.6244 52.567 25.3318 52.2736L23.6409 50.5827L24.1953 48.9182ZM17.0982 39.0186L20.6487 42.569L19.8079 43.4098L16.2575 39.8594L17.0982 39.0186ZM30.6737 57.319C29.9429 58.0483 28.9705 58.4516 27.9369 58.4516C26.9034 58.4516 25.931 58.0483 25.1994 57.3174L14.7362 46.855C14.0053 46.1241 13.6028 45.1517 13.6028 44.1182C13.6028 43.0839 14.0053 42.1115 14.7362 41.3806L15.162 40.9548L18.7124 44.5053L18.6846 44.5332C17.7795 45.439 17.7795 46.9123 18.6846 47.8181L24.2363 53.3698C24.6753 53.808 25.2582 54.0503 25.8791 54.0503C26.5 54.0503 27.083 53.8088 27.4933 53.3969L27.5514 53.345L31.1181 56.9117L30.6737 57.319ZM32.2608 55.8635L28.7018 52.3045L29.7246 51.3801L33.2773 54.9329L32.2608 55.8635Z" fill="#212B36"/>
<path d="M57.6219 12H46.7832C45.5027 12 44.4606 13.0421 44.4606 14.3226V20.5161C44.4606 21.7966 45.5027 22.8387 46.7832 22.8387H48.8511L48.0506 27.5079L55.5215 22.8387H57.6219C58.9024 22.8387 59.9445 21.7966 59.9445 20.5161V14.3226C59.9445 13.0421 58.9024 12 57.6219 12ZM58.3961 20.5161C58.3961 20.9427 58.0485 21.2903 57.6219 21.2903H55.0771L50.1602 24.3631L50.6875 21.2903H46.7832C46.3566 21.2903 46.009 20.9427 46.009 20.5161V14.3226C46.009 13.896 46.3566 13.5484 46.7832 13.5484H57.6219C58.0485 13.5484 58.3961 13.896 58.3961 14.3226V20.5161Z" fill="#212B36"/>
<path d="M56.8477 15.0968H47.5574V16.6452H56.8477V15.0968Z" fill="#212B36"/>
<path d="M53.751 18.1935H47.5574V19.7419H53.751V18.1935Z" fill="#212B36"/>
<path d="M56.8477 18.1935H55.2993V19.7419H56.8477V18.1935Z" fill="#212B36"/>
<path d="M35.9445 14.3226C25.8289 14.3226 17.1153 21.3197 14.85 31.08L13.3829 28.6343L12.0552 29.431L14.7765 33.9654L19.3109 31.2441L18.5143 29.9164L16.4162 31.1752C18.6103 22.2465 26.6394 15.871 35.9445 15.871C37.9783 15.871 39.985 16.1729 41.9089 16.769L42.3672 15.2903C40.2947 14.6477 38.1339 14.3226 35.9445 14.3226Z" fill="#212B36"/>
<path d="M59.5681 29.1421L55.0337 26.4208L52.3132 30.9561L53.6409 31.7527L54.9958 29.4944C55.7088 31.5808 56.0734 33.7633 56.0734 35.9999C56.0734 40.6041 54.4786 45.1052 51.5839 48.6735L52.7862 49.649C55.9047 45.8059 57.6218 40.9579 57.6218 35.9999C57.6218 33.6317 57.2401 31.3192 56.4961 29.105L58.7715 30.4699L59.5681 29.1421Z" fill="#212B36"/>
</g>
<defs>
<clipPath id="clip0_21778_13205">
<rect width="48" height="48" fill="white" transform="translate(12 12)"/>
</clipPath>
</defs>
</svg>
