<svg width="72" height="72" viewBox="0 0 72 72" fill="none" xmlns="http://www.w3.org/2000/svg">
<rect width="72" height="72" rx="36" fill="#FA541C"/>
<g clip-path="url(#clip0_21778_13180)">
<path d="M53.4145 47.2C53.6685 45.8513 53.662 44.4664 53.3953 43.12L57.0593 34.2776C57.0596 34.2718 57.0596 34.2659 57.0593 34.26C57.653 32.6345 58.5231 31.1237 59.6313 29.7944C59.907 29.5032 60.0179 29.0929 59.9265 28.7024L58.4241 22.2144C58.4062 22.1466 58.3793 22.0815 58.3441 22.0208C58.3377 22.0088 58.3353 21.9944 58.3289 21.9832C58.3225 21.972 58.2945 21.9448 58.2785 21.924C58.2457 21.8761 58.2079 21.8319 58.1657 21.792C58.1378 21.7725 58.1087 21.7548 58.0785 21.7392C58.0394 21.7105 57.9979 21.6854 57.9545 21.664C57.8942 21.6413 57.8313 21.626 57.7673 21.6184C57.7489 21.6184 57.7329 21.6064 57.7145 21.6048C57.5611 21.5946 57.4081 21.6288 57.2737 21.7032C57.2617 21.7096 57.2473 21.712 57.2353 21.7192H57.2273L51.5785 25.2448C51.2364 25.4567 51.024 25.8266 51.0137 26.2288C50.8567 27.9562 50.4017 29.6433 49.6689 31.2152V31.224L47.8377 35.6504C46.9389 35.1727 45.9767 34.8252 44.9801 34.6184C45.3573 32.0144 45.496 29.3813 45.3945 26.752C46.8837 24.9653 47.5984 22.6582 47.3801 20.3424C46.8801 15.68 42.6665 12.3128 42.4865 12.1712C42.2159 11.9582 41.8394 11.9422 41.5517 12.1315C41.2641 12.3208 41.1298 12.6729 41.2185 13.0056C41.6305 14.5528 41.2737 16.1856 38.2305 19.5432C36.8632 20.8635 36.4298 22.8793 37.1337 24.6448C37.4028 25.3201 37.7884 25.9429 38.2729 26.4848C38.0793 27.7208 37.9273 28.8912 37.8225 30.0312C37.642 31.9168 37.5955 33.8127 37.6833 35.7048C36.9696 36.0918 36.3014 36.5573 35.6913 37.0928L31.8113 20.5008C31.8113 20.484 31.7953 20.472 31.7905 20.4568C31.7774 20.4035 31.7587 20.3517 31.7345 20.3024L27.7713 12.9832C27.3746 12.2507 26.5367 11.8742 25.7256 12.0642C24.9145 12.2542 24.3309 12.9635 24.3009 13.796L24.0001 22.112C24.0003 22.1721 24.007 22.2319 24.0201 22.2904C24.0201 22.3032 24.0201 22.3144 24.0201 22.3264L27.9785 39.22C27.354 39.2476 26.7341 39.3401 26.1289 39.496L21.7745 28.98C21.4253 28.1762 20.4992 27.7969 19.6865 28.1248L13.0313 30.88C12.2167 31.22 11.8297 32.154 12.1649 32.9704L18.0705 47.2168C14.6093 47.3986 11.9226 50.3041 12.0119 53.7689C12.1013 57.2337 14.9341 59.9969 18.4001 60H53.6001C55.8866 59.9669 57.9817 58.7164 59.0962 56.7197C60.2108 54.7229 60.1754 52.2833 59.0034 50.3197C57.8315 48.3561 55.701 47.1669 53.4145 47.2ZM52.5993 26.4928L55.9529 24.4L54.7657 27.2672C54.5964 27.6755 54.7902 28.1436 55.1985 28.3128C55.6067 28.4821 56.0748 28.2883 56.2441 27.88L57.4313 25.0128L58.3201 28.8632C57.3691 30.0234 56.588 31.3128 56.0001 32.6928C55.166 33.0795 54.2082 33.0995 53.3587 32.7482C52.5092 32.3968 51.8454 31.7061 51.5281 30.8432C52.0899 29.4513 52.4506 27.9865 52.5993 26.4928ZM50.7593 32.7736C51.2885 33.4207 51.9753 33.9207 52.7537 34.2256C53.3723 34.4918 54.0378 34.6321 54.7113 34.6384C54.8733 34.6379 55.0352 34.628 55.1961 34.6088L52.6433 40.7688C51.8789 39.0835 50.6964 37.6215 49.2081 36.5216L50.7593 32.7736ZM39.7993 27.06L43.8185 27.3056C43.8433 28.0528 43.8345 28.8256 43.8097 29.6104C42.4707 29.7061 41.1251 29.6411 39.8017 29.4168C39.7009 29.4024 39.6025 29.3912 39.5025 29.3776C39.5825 28.624 39.6801 27.8608 39.7977 27.06H39.7993ZM39.4177 20.6176C41.5417 18.2744 42.6425 16.472 42.8985 14.7776C44.4252 16.3485 45.433 18.3501 45.7857 20.512C45.9537 22.3941 45.3717 24.2664 44.1665 25.7216C42.5862 25.6256 41.0233 25.5296 39.4777 25.4336C38.8135 24.8128 38.4315 23.9478 38.4199 23.0388C38.4082 22.1297 38.768 21.2553 39.4161 20.6176H39.4177ZM39.3569 30.972L39.5889 31.0024C40.6197 31.1619 41.6603 31.2503 42.7033 31.2672C43.0345 31.2672 43.3833 31.2408 43.7329 31.2136C43.6601 32.2432 43.5409 33.3184 43.3897 34.4296C43.1921 34.4192 42.9985 34.4 42.8001 34.4C41.5922 34.4022 40.3935 34.6086 39.2545 35.0104C39.2176 33.6635 39.2512 32.3155 39.3553 30.972H39.3569ZM33.1689 40.3272L30.8801 30.5776C30.7731 30.1547 30.3469 29.8954 29.9221 29.9949C29.4973 30.0944 29.2305 30.5159 29.3225 30.9424L31.3793 39.7176C30.8138 39.5154 30.2296 39.3699 29.6353 39.2832L26.1241 24.2992C26.6159 24.5232 27.15 24.6394 27.6905 24.64C27.7409 24.64 27.7945 24.6328 27.8457 24.6304L28.4113 27.0456C28.4722 27.3283 28.681 27.5561 28.9573 27.6414C29.2336 27.7268 29.5345 27.6563 29.7442 27.4572C29.9539 27.258 30.0398 26.9612 29.9689 26.6808L29.4025 24.264C29.9452 24.0238 30.424 23.6593 30.8001 23.2L34.3697 38.4632C33.9061 39.0415 33.5037 39.6661 33.1689 40.3272ZM28.2809 22.9672C27.2577 23.1657 26.2131 22.7474 25.6097 21.8976L25.7113 19.08C25.9896 19.132 26.2721 19.1588 26.5553 19.16C26.8288 19.1612 27.1015 19.1309 27.3681 19.0696C27.9077 18.9279 28.4126 18.6769 28.8513 18.332L30.1985 20.8184C30.0379 21.8501 29.2874 22.6917 28.2809 22.9688V22.9672ZM26.0897 13.6216C26.1986 13.5964 26.3111 13.6468 26.3649 13.7448L28.0801 16.9168C27.7706 17.1968 27.4012 17.402 27.0001 17.5168C26.5901 17.5921 26.1683 17.5721 25.7673 17.4584L25.8977 13.8536C25.902 13.7419 25.9807 13.6468 26.0897 13.6216ZM20.3001 29.6L20.9113 31.0768L17.9513 32.3024C17.6003 32.4498 17.4018 32.824 17.4766 33.1972C17.5513 33.5704 17.8787 33.8392 18.2593 33.84C18.3644 33.8398 18.4684 33.8192 18.5657 33.7792L21.5257 32.5528L22.1377 34.0312L20.6569 34.6448C20.3039 34.7909 20.1035 35.1661 20.1782 35.5406C20.253 35.9152 20.5821 36.1847 20.9641 36.184C21.0689 36.1837 21.1727 36.163 21.2697 36.1232L22.7505 35.5096L23.3625 36.988L20.4001 38.216C20.0471 38.3621 19.8467 38.7373 19.9214 39.1118C19.9962 39.4864 20.3253 39.7559 20.7073 39.7552C20.8121 39.755 20.9159 39.7343 21.0129 39.6944L23.9729 38.4688L24.6201 40.0312C22.0132 41.2211 20.1016 43.5478 19.4401 46.336L13.6417 32.3552L20.3001 29.6ZM53.6001 58.4H18.4001C15.7491 58.4 13.6001 56.251 13.6001 53.6C13.6001 50.9491 15.7491 48.8 18.4001 48.8C18.8636 48.7985 19.3248 48.8654 19.7689 48.9984C20.0087 49.0709 20.2687 49.0268 20.4712 48.8792C20.6738 48.7317 20.7955 48.4978 20.8001 48.2472C20.857 45.3961 22.5052 42.8168 25.0686 41.5673C27.632 40.3178 30.6791 40.6085 32.9601 42.32C33.1616 42.4701 33.422 42.5167 33.663 42.4459C33.9041 42.3751 34.098 42.1952 34.1865 41.96C35.7494 37.7946 40.0692 35.3444 44.4464 36.1405C48.8236 36.9367 52.0039 40.751 52.0001 45.2C52.0016 46.115 51.8654 47.0249 51.5961 47.8992C51.512 48.1713 51.5788 48.4675 51.7716 48.6771C51.9643 48.8866 52.254 48.978 52.5321 48.9168C52.8828 48.8396 53.2409 48.8005 53.6001 48.8C56.251 48.8 58.4001 50.9491 58.4001 53.6C58.4001 56.251 56.251 58.4 53.6001 58.4Z" fill="white"/>
<path d="M42.948 24.5601C43.1991 24.5611 43.4361 24.444 43.588 24.2441C44.5868 22.8923 44.9727 21.1836 44.652 19.5337C44.5838 19.2516 44.3681 19.0286 44.0884 18.9509C43.8088 18.8733 43.509 18.9532 43.3051 19.1598C43.1012 19.3663 43.0252 19.6671 43.1064 19.9457C43.2979 21.1181 43.0121 22.3183 42.3128 23.2785C42.131 23.5209 42.1017 23.8453 42.2373 24.1163C42.3728 24.3873 42.6498 24.5585 42.9528 24.5585L42.948 24.5601Z" fill="white"/>
<path d="M41.8961 48.8002C41.3012 48.802 40.7145 48.9388 40.1801 49.2002C38.741 47.2309 36.0538 46.654 33.9332 47.8591C31.8126 49.0641 30.9329 51.6679 31.8881 53.9122C32.0138 54.2072 32.3034 54.3986 32.6241 54.3986C32.7319 54.3988 32.8386 54.3771 32.9377 54.3346C33.1329 54.2514 33.2871 54.0941 33.3663 53.8973C33.4455 53.7004 33.4433 53.4802 33.3601 53.285C33.1859 52.879 33.0961 52.4419 33.0961 52.0002C33.0961 50.2329 34.5288 48.8002 36.2961 48.8002C37.5373 48.794 38.6678 49.5132 39.1881 50.6402C39.2054 50.6662 39.2241 50.6913 39.2441 50.7154C39.2567 50.7428 39.2709 50.7695 39.2865 50.7954C39.3009 50.813 39.3217 50.821 39.3377 50.8378C39.3752 50.8767 39.4168 50.9116 39.4617 50.9418C39.5016 50.9725 39.5445 50.9993 39.5897 51.0218C39.6362 51.0413 39.6844 51.0563 39.7337 51.0666C39.7829 51.0795 39.8333 51.0873 39.8841 51.0898C39.988 51.0889 40.0912 51.0717 40.1897 51.0386C40.211 51.0346 40.2321 51.0296 40.2529 51.0234C40.2788 51.0066 40.3037 50.9882 40.3273 50.9682C40.3561 50.9554 40.3841 50.941 40.4113 50.925C40.8315 50.5851 41.3557 50.3999 41.8961 50.4002C42.8315 50.4017 43.6808 50.9466 44.0721 51.7962C44.2554 52.1982 44.73 52.3755 45.1321 52.1922C45.5342 52.0088 45.7114 51.5342 45.5281 51.1322C44.8767 49.7123 43.4583 48.8016 41.8961 48.8002Z" fill="white"/>
<path d="M26.1473 43.2408C26.0265 43.28 23.2001 44.2576 23.2001 47.2C23.2001 47.6419 23.5583 48 24.0001 48C24.4419 48 24.8001 47.6419 24.8001 47.2C24.8654 46.084 25.5997 45.1186 26.6577 44.7576C27.0774 44.6167 27.3034 44.1622 27.1625 43.7424C27.0216 43.3227 26.567 43.0967 26.1473 43.2376V43.2408Z" fill="white"/>
<path d="M37.4057 42.3761C37.4692 42.3923 37.5345 42.4003 37.6001 42.4001C37.9667 42.3998 38.2862 42.1502 38.3753 41.7945C38.7435 40.3007 40.066 39.238 41.6041 39.2001C42.0459 39.199 42.4032 38.84 42.4021 38.3981C42.401 37.9563 42.0419 37.599 41.6001 37.6001C39.3263 37.6303 37.3613 39.1961 36.8241 41.4057C36.7167 41.8343 36.9771 42.2688 37.4057 42.3761Z" fill="white"/>
</g>
<defs>
<clipPath id="clip0_21778_13180">
<rect width="48" height="48" fill="white" transform="translate(12 12)"/>
</clipPath>
</defs>
</svg>
