<svg width="72" height="72" viewBox="0 0 72 72" fill="none" xmlns="http://www.w3.org/2000/svg">
<path d="M30.9384 45.6377C30.7571 45.6377 30.5744 45.5753 30.4254 45.4484L25.2975 41.082C25.1206 40.9312 25.0189 40.7109 25.0189 40.4783C25.0189 40.2462 25.121 40.0259 25.2975 39.8751L30.4254 35.5087C30.7584 35.2248 31.2586 35.265 31.5425 35.598C31.8259 35.9314 31.7861 36.4316 31.4527 36.7151L27.0336 40.4783L31.4527 44.2416C31.7861 44.5255 31.8259 45.0256 31.5425 45.3586C31.3855 45.543 31.1626 45.6377 30.9384 45.6377Z" fill="#212B36"/>
<path d="M41.0616 45.6377C40.8374 45.6377 40.6145 45.543 40.458 45.3586C40.1741 45.0256 40.2143 44.5255 40.5473 44.2416L44.9664 40.4783L40.5473 36.7151C40.2143 36.4316 40.1741 35.9314 40.458 35.598C40.7414 35.265 41.242 35.2248 41.5746 35.5087L46.7025 39.8751C46.8794 40.0259 46.9811 40.2462 46.9811 40.4783C46.9811 40.7109 46.8794 40.9312 46.7025 41.082L41.5746 45.4484C41.4255 45.5753 41.2429 45.6377 41.0616 45.6377Z" fill="#212B36"/>
<path d="M34.1847 48.9128C34.1303 48.9128 34.0755 48.9071 34.0202 48.8956C33.5921 48.8054 33.3179 48.3848 33.4082 47.9568L36.6041 32.783C36.6943 32.3549 37.1144 32.0807 37.5429 32.171C37.971 32.2612 38.2451 32.6813 38.1549 33.1098L34.959 48.2836C34.8803 48.6568 34.5513 48.9128 34.1847 48.9128Z" fill="#212B36"/>
<path d="M54.6792 57.1796H17.3208C14.3871 57.1796 12 54.7929 12 51.8588V20.151C12 17.2173 14.3871 14.8302 17.3208 14.8302H54.6792C57.6129 14.8302 60 17.2173 60 20.151V51.8588C60 54.7929 57.6129 57.1796 54.6792 57.1796ZM17.3208 16.4151C15.2609 16.4151 13.5849 18.0911 13.5849 20.151V51.8588C13.5849 53.9186 15.2609 55.5946 17.3208 55.5946H54.6792C56.7391 55.5946 58.4151 53.9186 58.4151 51.8588V20.151C58.4151 18.0911 56.7391 16.4151 54.6792 16.4151H17.3208Z" fill="#212B36"/>
<path d="M59.2076 27.5196H12.7925C12.3547 27.5196 12 27.165 12 26.7272C12 26.2898 12.3547 25.9347 12.7925 25.9347H59.2076C59.6453 25.9347 60 26.2898 60 26.7272C60 27.165 59.6453 27.5196 59.2076 27.5196Z" fill="#212B36"/>
<path d="M25.5398 23.7276C24.1574 23.7276 23.032 22.6022 23.032 21.2198C23.032 19.837 24.1574 18.712 25.5398 18.712C26.9226 18.712 28.0476 19.837 28.0476 21.2198C28.0476 22.6022 26.9226 23.7276 25.5398 23.7276ZM25.5398 20.2969C25.0312 20.2969 24.6169 20.7108 24.6169 21.2198C24.6169 21.7288 25.0312 22.1427 25.5398 22.1427C26.0488 22.1427 26.4627 21.7288 26.4627 21.2198C26.4627 20.7108 26.0488 20.2969 25.5398 20.2969Z" fill="#212B36"/>
<path d="M17.8346 23.7033C16.4518 23.7033 15.3268 22.5783 15.3268 21.1955C15.3268 19.8127 16.4518 18.6877 17.8346 18.6877C19.2174 18.6877 20.3424 19.8127 20.3424 21.1955C20.3424 22.5783 19.2174 23.7033 17.8346 23.7033ZM17.8346 20.2726C17.3261 20.2726 16.9117 20.6869 16.9117 21.1955C16.9117 21.7045 17.3261 22.1184 17.8346 22.1184C18.3436 22.1184 18.7575 21.7045 18.7575 21.1955C18.7575 20.6869 18.3436 20.2726 17.8346 20.2726Z" fill="#212B36"/>
<path d="M33.245 23.7515C31.8626 23.7515 30.7376 22.6265 30.7376 21.2437C30.7376 19.8613 31.8626 18.7363 33.245 18.7363C34.6278 18.7363 35.7528 19.8613 35.7528 21.2437C35.7528 22.6265 34.6278 23.7515 33.245 23.7515ZM33.245 20.3208C32.7364 20.3208 32.3225 20.7347 32.3225 21.2437C32.3225 21.7527 32.7364 22.1666 33.245 22.1666C33.754 22.1666 34.1679 21.7527 34.1679 21.2437C34.1679 20.7347 33.754 20.3208 33.245 20.3208Z" fill="#212B36"/>
</svg>
