<svg width="72" height="72" viewBox="0 0 72 72" fill="none" xmlns="http://www.w3.org/2000/svg">
<g clip-path="url(#clip0_21778_13164)">
<path d="M44.0581 42.7834C42.9208 42.7834 41.9956 41.9826 41.9956 40.9983C41.9956 40.0139 42.9208 39.2131 44.0581 39.2131C45.1953 39.2131 46.1206 40.0139 46.1206 40.9983C46.1206 41.516 46.5404 41.9358 47.0581 41.9358C47.5757 41.9358 47.9956 41.516 47.9956 40.9983C47.9956 39.2803 46.7155 37.8358 44.9956 37.4438V36.9562C44.9956 36.4385 44.5758 36.0187 44.0581 36.0187C43.5404 36.0187 43.1206 36.4385 43.1206 36.9562V37.4438C41.4006 37.8358 40.1206 39.2803 40.1206 40.9983C40.1206 43.0164 41.8869 44.6584 44.0581 44.6584C45.1953 44.6584 46.1206 45.4592 46.1206 46.4436C46.1206 47.4279 45.1953 48.2287 44.0581 48.2287C42.9208 48.2287 41.9956 47.4279 41.9956 46.4436C41.9956 45.9259 41.5758 45.5061 41.0581 45.5061C40.5404 45.5061 40.1206 45.9259 40.1206 46.4436C40.1206 48.1615 41.4006 49.606 43.1206 49.9981V50.4031C43.1206 50.9208 43.5404 51.3406 44.0581 51.3406C44.5758 51.3406 44.9956 50.9208 44.9956 50.4031V49.9981C46.7155 49.606 47.9956 48.1615 47.9956 46.4436C47.9956 44.4253 46.2292 42.7834 44.0581 42.7834Z" fill="#212B36"/>
<path d="M54.3264 37.2072C53.1017 35.2989 51.3764 33.7719 49.3368 32.7914C48.87 32.567 48.3099 32.7635 48.0856 33.2302C47.8613 33.6969 48.0577 34.2569 48.5244 34.4813C52.0785 36.1898 54.3749 39.8403 54.3749 43.7814C54.3749 45.4677 53.9593 47.1401 53.173 48.618C52.9298 49.075 53.1031 49.6428 53.5603 49.886C53.7005 49.9606 53.8513 49.996 53.9998 49.996C54.3352 49.996 54.6597 49.8155 54.8282 49.4987C55.7583 47.7508 56.2499 45.7737 56.2499 43.7814C56.2499 41.4414 55.5848 39.168 54.3264 37.2072Z" fill="#212B36"/>
<path d="M45.5318 31.5939L45.4687 31.5938C44.951 31.5938 44.5312 32.0135 44.5312 32.5313C44.5312 33.0491 44.951 33.4688 45.4687 33.4688L45.523 33.4689C45.5245 33.4689 45.5259 33.4689 45.5275 33.4689C46.0432 33.4689 46.4624 33.0521 46.4649 32.5358C46.4672 32.018 46.0495 31.5964 45.5318 31.5939Z" fill="#212B36"/>
<path d="M39.6006 53.0812C36.0466 51.3726 33.7502 47.7221 33.7502 43.7811C33.7502 42.0948 34.1659 40.4224 34.9521 38.9445C35.1953 38.4875 35.022 37.9197 34.5649 37.6765C34.1079 37.4333 33.54 37.6067 33.2969 38.0638C32.3668 39.8118 31.8752 41.7888 31.8752 43.7811C31.8752 46.1211 32.5403 48.3944 33.7987 50.3553C35.0234 52.2636 36.7488 53.7906 38.7883 54.7712C38.9193 54.8342 39.0576 54.8639 39.1938 54.8639C39.543 54.8639 39.878 54.668 40.0395 54.3324C40.2636 53.8657 40.0673 53.3056 39.6006 53.0812Z" fill="#212B36"/>
<path d="M42.6563 54.0937L42.6021 54.0935C42.0819 54.0926 41.6627 54.5088 41.6603 55.0266C41.6579 55.5444 42.0758 55.9661 42.5935 55.9685L42.6563 55.9687C43.174 55.9687 43.5938 55.5489 43.5938 55.0312C43.5938 54.5135 43.174 54.0937 42.6563 54.0937Z" fill="#212B36"/>
<path d="M48.3195 28.422C48.2054 28.1501 48.0657 27.8939 47.903 27.6562H50.3437C52.7215 27.6562 54.6562 25.7216 54.6562 23.3437C54.6562 20.9659 52.7215 19.0312 50.3437 19.0312H42.8362C43.3135 18.3373 43.5937 17.4978 43.5937 16.5937C43.5937 14.2159 41.6591 12.2812 39.2812 12.2812H16.3125C13.9346 12.2812 12 14.2159 12 16.5937C12 18.9716 13.9346 20.9062 16.3125 20.9062H23.82C23.3427 21.6002 23.0625 22.4397 23.0625 23.3437C23.0625 24.2478 23.3426 25.0873 23.82 25.7812H21.375C18.9971 25.7812 17.0625 27.7158 17.0625 30.0937C17.0625 31.4594 17.7013 32.678 18.6951 33.4687C17.7013 34.2594 17.0625 35.4781 17.0625 36.8437C17.0625 38.2094 17.7013 39.428 18.6951 40.2187C17.7013 41.0094 17.0625 42.228 17.0625 43.5937C17.0625 44.9593 17.7013 46.178 18.6951 46.9687C17.7013 47.7594 17.0625 48.978 17.0625 50.3437C17.0625 52.7215 18.9971 54.6562 21.375 54.6562H32.4234C35.334 57.7693 39.4745 59.7188 44.0625 59.7188C52.8505 59.7188 60 52.5692 60 43.7813C60 36.4672 55.0472 30.289 48.3195 28.422ZM50.3437 20.9062C51.6878 20.9062 52.7812 21.9997 52.7812 23.3437C52.7812 24.6877 51.6878 25.7812 50.3437 25.7812H27.375C26.0309 25.7812 24.9375 24.6877 24.9375 23.3437C24.9375 21.9997 26.0309 20.9062 27.375 20.9062H50.3437ZM16.3125 19.0312C14.9684 19.0312 13.875 17.9377 13.875 16.5937C13.875 15.2497 14.9684 14.1562 16.3125 14.1562H39.2812C40.6253 14.1562 41.7187 15.2497 41.7187 16.5937C41.7187 17.9377 40.6253 19.0312 39.2812 19.0312H16.3125ZM21.375 27.6562H44.3437C44.7213 27.6562 45.0829 27.744 45.4073 27.9011C44.9638 27.8639 44.5155 27.8438 44.0625 27.8438C39.6614 27.8438 35.6715 29.6372 32.7845 32.5312H21.375C20.031 32.5312 18.9375 31.4377 18.9375 30.0937C18.9375 28.7497 20.031 27.6562 21.375 27.6562ZM21.375 34.4062H31.1826C30.1184 35.8643 29.2955 37.5089 28.773 39.2812H21.375C20.0309 39.2812 18.9375 38.1878 18.9375 36.8437C18.9375 35.4997 20.0309 34.4062 21.375 34.4062ZM21.375 41.1562H28.3425C28.2003 42.0105 28.1251 42.8872 28.1251 43.7813C28.1251 44.545 28.1803 45.2959 28.2846 46.0312H21.375C20.0309 46.0312 18.9375 44.9378 18.9375 43.5937C18.9375 42.2496 20.0309 41.1562 21.375 41.1562ZM21.375 52.7812C20.0309 52.7812 18.9375 51.6878 18.9375 50.3437C18.9375 48.9996 20.0309 47.9062 21.375 47.9062H28.6674C29.1405 49.6699 29.9089 51.3136 30.9167 52.7812H21.375ZM44.0625 57.8438C36.3085 57.8438 30.0001 51.5353 30.0001 43.7813C30.0001 36.0272 36.3085 29.7188 44.0625 29.7188C51.8166 29.7188 58.125 36.0272 58.125 43.7813C58.125 51.5353 51.8166 57.8438 44.0625 57.8438Z" fill="#212B36"/>
</g>
<defs>
<clipPath id="clip0_21778_13164">
<rect width="48" height="48" fill="white" transform="translate(12 12)"/>
</clipPath>
</defs>
</svg>
