<svg width="72" height="72" viewBox="0 0 72 72" fill="none" xmlns="http://www.w3.org/2000/svg">
<g clip-path="url(#clip0_21778_13213)">
<path d="M59.9419 38.7577C59.5872 36.3003 57.6567 34.3699 55.1993 34.0152V32.5608C55.1993 28.548 52.149 25.2809 48.3995 25.2809C44.7579 25.2809 41.7092 28.4488 41.5996 32.3432H41.646L41.5996 32.3512V48.1166C41.5996 53.1565 37.8316 57.2492 33.1997 57.2492C28.5678 57.2492 24.7998 53.1509 24.7998 48.1166V46.751C25.9598 46.751 27.1998 45.9102 27.1998 43.551V41.539C32.3341 40.2263 35.9996 35.8175 35.9996 30.8192V29.1512H34.3997L34.3661 18.7394C34.3545 16.8121 32.9715 15.1665 31.0749 14.8234C30.6658 13.5702 29.3181 12.8858 28.0648 13.295C26.8115 13.7041 26.1271 15.0517 26.5363 16.3051C26.9454 17.5584 28.2931 18.2428 29.5464 17.8336C30.2175 17.6145 30.7572 17.1096 31.0205 16.4546C32.0454 16.7462 32.7554 17.6786 32.7637 18.7442L32.7997 29.1512H31.1997V30.8424C31.1359 33.6251 29.2703 36.0432 26.595 36.8111C25.1635 37.2653 23.6265 37.2653 22.195 36.8111C19.5228 36.0406 17.6614 33.6229 17.5999 30.8424V29.1512H15.2V18.7514C15.2046 17.6701 15.9317 16.7253 16.9759 16.4442C17.4628 17.6837 18.8623 18.2937 20.1018 17.8068C21.3413 17.3199 21.9513 15.9203 21.4644 14.6809C20.9775 13.4416 19.5779 12.8315 18.3385 13.3184C17.6669 13.5823 17.1487 14.133 16.9263 14.8194C15.0091 15.147 13.6053 16.8063 13.6 18.7514V29.1512H12V30.8152C12 35.8191 15.6679 40.2295 20.7999 41.539V43.551C20.7999 45.9102 22.0398 46.751 23.1998 46.751V48.1166C23.1998 54.0365 27.6854 58.8492 33.1997 58.8492C38.714 58.8492 43.1995 54.0309 43.1995 48.1166V32.3896C43.2795 29.3536 45.6139 26.8833 48.3995 26.8833C51.2666 26.8833 53.5994 29.4304 53.5994 32.5632V34.0152C50.5383 34.457 48.4151 37.2966 48.8568 40.3577C49.2986 43.4187 52.1383 45.542 55.1993 45.1002C58.2604 44.6584 60.3837 41.8186 59.9419 38.7577ZM28.7997 16.3514C28.358 16.3514 27.9998 15.9932 27.9998 15.5514C27.9998 15.1096 28.358 14.7514 28.7997 14.7514C29.2415 14.7514 29.5997 15.1096 29.5997 15.5514C29.5997 15.9932 29.2415 16.3514 28.7997 16.3514ZM19.1999 14.7514C19.6417 14.7514 19.9999 15.1096 19.9999 15.5514C19.9999 15.9932 19.6417 16.3514 19.1999 16.3514C18.7581 16.3514 18.3999 15.9932 18.3999 15.5514C18.3999 15.1096 18.7581 14.7514 19.1999 14.7514ZM13.6 30.8152V30.7512H15.9999V30.8424C16.0599 34.3195 18.3732 37.3539 21.7103 38.3327C23.4589 38.8864 25.3359 38.8864 27.0846 38.3327C30.4232 37.3552 32.7386 34.3207 32.7997 30.8424V30.7512H34.3997V30.8152C34.3997 35.2655 30.9693 39.1815 26.2398 40.1287C25.1292 40.3511 23.9916 40.4069 22.8646 40.2943C22.4936 40.2583 22.1248 40.2025 21.7599 40.1271C17.0303 39.1815 13.6 35.2655 13.6 30.8152ZM23.1998 45.151C22.4798 45.151 22.3998 44.031 22.3998 43.551V41.8534C22.4638 41.8614 22.5294 41.8646 22.5942 41.871C22.6742 41.8798 22.7542 41.8862 22.8342 41.8934C23.2126 41.927 23.5942 41.9494 23.979 41.9502H24.019C24.403 41.9502 24.7838 41.927 25.1598 41.8934C25.2398 41.8862 25.3246 41.8798 25.407 41.871C25.4702 41.8638 25.5358 41.8614 25.599 41.8534V43.551C25.599 44.031 25.519 45.151 24.799 45.151H23.1998ZM54.3994 43.551C52.1903 43.551 50.3994 41.7601 50.3994 39.5511C50.3994 37.342 52.1903 35.5511 54.3994 35.5511C56.6084 35.5511 58.3993 37.342 58.3993 39.5511C58.3967 41.7591 56.6073 43.5484 54.3994 43.551Z" fill="#212B36"/>
<path d="M54.3994 37.151C53.0739 37.151 51.9994 38.2255 51.9994 39.551C51.9994 40.8765 53.0739 41.951 54.3994 41.951C55.7249 41.951 56.7993 40.8765 56.7993 39.551C56.7993 38.2255 55.7249 37.151 54.3994 37.151ZM54.3994 40.351C53.9576 40.351 53.5994 39.9928 53.5994 39.551C53.5994 39.1092 53.9576 38.751 54.3994 38.751C54.8412 38.751 55.1994 39.1092 55.1994 39.551C55.1994 39.9928 54.8412 40.351 54.3994 40.351Z" fill="#212B36"/>
</g>
<defs>
<clipPath id="clip0_21778_13213">
<rect width="48" height="48" fill="white" transform="translate(12 12)"/>
</clipPath>
</defs>
</svg>
