<svg width="72" height="72" viewBox="0 0 72 72" fill="none" xmlns="http://www.w3.org/2000/svg">
<g clip-path="url(#clip0_21778_13197)">
<path d="M46.3125 24.75H40.2307C39.713 24.75 39.2932 25.1697 39.2932 25.6875C39.2932 26.2053 39.713 26.625 40.2307 26.625H45.375V45.375H26.625V26.625H31.7932C32.3108 26.625 32.7307 26.2053 32.7307 25.6875C32.7307 25.1697 32.3108 24.75 31.7932 24.75H25.6875C25.1698 24.75 24.75 25.1697 24.75 25.6875V46.3125C24.75 46.8302 25.1698 47.25 25.6875 47.25H46.3125C46.8302 47.25 47.25 46.8302 47.25 46.3125V25.6875C47.25 25.1697 46.8302 24.75 46.3125 24.75Z" fill="#212B36"/>
<path d="M28.875 29.8125V33.9375C28.875 34.4553 29.2948 34.875 29.8125 34.875H33.9375C34.4552 34.875 34.875 34.4553 34.875 33.9375V29.8125C34.875 29.2947 34.4552 28.875 33.9375 28.875H29.8125C29.2948 28.875 28.875 29.2947 28.875 29.8125ZM30.75 30.75H33V33H30.75V30.75Z" fill="#212B36"/>
<path d="M38.0625 30.75H42.1875C42.7052 30.75 43.125 30.3303 43.125 29.8125C43.125 29.2947 42.7052 28.875 42.1875 28.875H38.0625C37.5448 28.875 37.125 29.2947 37.125 29.8125C37.125 30.3303 37.5448 30.75 38.0625 30.75Z" fill="#212B36"/>
<path d="M38.0625 34.875H42.1875C42.7052 34.875 43.125 34.4553 43.125 33.9375C43.125 33.4197 42.7052 33 42.1875 33H38.0625C37.5448 33 37.125 33.4197 37.125 33.9375C37.125 34.4553 37.5448 34.875 38.0625 34.875Z" fill="#212B36"/>
<path d="M38.0625 43.125H42.1875C42.7052 43.125 43.125 42.7052 43.125 42.1875V38.0625C43.125 37.5448 42.7052 37.125 42.1875 37.125C41.6698 37.125 41.25 37.5448 41.25 38.0625V41.25H38.0625C37.5448 41.25 37.125 41.6698 37.125 42.1875C37.125 42.7052 37.5448 43.125 38.0625 43.125Z" fill="#212B36"/>
<path d="M38.0625 39C38.3091 39 38.5509 38.8997 38.7252 38.7252C38.8997 38.5509 39 38.3091 39 38.0625C39 37.8159 38.8997 37.5741 38.7252 37.3997C38.5509 37.2253 38.3091 37.125 38.0625 37.125C37.8159 37.125 37.5741 37.2252 37.3997 37.3997C37.2253 37.5742 37.125 37.8159 37.125 38.0625C37.125 38.3091 37.2252 38.5509 37.3997 38.7252C37.5741 38.8997 37.8159 39 38.0625 39Z" fill="#212B36"/>
<path d="M33.9375 41.25H29.8125C29.2948 41.25 28.875 41.6698 28.875 42.1875C28.875 42.7052 29.2948 43.125 29.8125 43.125H33.9375C34.4552 43.125 34.875 42.7052 34.875 42.1875C34.875 41.6698 34.4552 41.25 33.9375 41.25Z" fill="#212B36"/>
<path d="M33.9375 37.125H29.8125C29.2948 37.125 28.875 37.5448 28.875 38.0625C28.875 38.5802 29.2948 39 29.8125 39H33.9375C34.4552 39 34.875 38.5802 34.875 38.0625C34.875 37.5448 34.4552 37.125 33.9375 37.125Z" fill="#212B36"/>
<path d="M59.0625 36.9375C59.5802 36.9375 60 36.5177 60 36C60 35.4822 59.5802 35.0625 59.0625 35.0625H51.75V31.6875H55.3125C55.8302 31.6875 56.25 31.2678 56.25 30.75C56.25 30.2322 55.8302 29.8125 55.3125 29.8125H51.75V26.4375H59.0625C59.5802 26.4375 60 26.0178 60 25.5C60 24.9822 59.5802 24.5625 59.0625 24.5625H51.6941C51.3671 22.3702 49.6298 20.6329 47.4375 20.3059V12.9375C47.4375 12.4197 47.0177 12 46.5 12C45.9823 12 45.5625 12.4197 45.5625 12.9375V20.25H42.1875V16.6875C42.1875 16.1697 41.7677 15.75 41.25 15.75C40.7323 15.75 40.3125 16.1697 40.3125 16.6875V20.25H36.9375V12.9375C36.9375 12.4197 36.5177 12 36 12C35.4823 12 35.0625 12.4197 35.0625 12.9375V20.25H31.6875V16.6875C31.6875 16.1697 31.2677 15.75 30.75 15.75C30.2323 15.75 29.8125 16.1697 29.8125 16.6875V20.25H26.4375V12.9375C26.4375 12.4197 26.0177 12 25.5 12C24.9823 12 24.5625 12.4197 24.5625 12.9375V20.3059C22.3702 20.6329 20.6329 22.3702 20.3059 24.5625H12.9375C12.4198 24.5625 12 24.9822 12 25.5C12 26.0178 12.4198 26.4375 12.9375 26.4375H20.25V29.8125H16.6875C16.1698 29.8125 15.75 30.2322 15.75 30.75C15.75 31.2678 16.1698 31.6875 16.6875 31.6875H20.25V35.0625H12.9375C12.4198 35.0625 12 35.4822 12 36C12 36.5177 12.4198 36.9375 12.9375 36.9375H20.25V40.3125H16.6875C16.1698 40.3125 15.75 40.7323 15.75 41.25C15.75 41.7677 16.1698 42.1875 16.6875 42.1875H20.25V45.5625H12.9375C12.4198 45.5625 12 45.9823 12 46.5C12 47.0177 12.4198 47.4375 12.9375 47.4375H20.3059C20.6329 49.6298 22.3702 51.3671 24.5625 51.6941V59.0625C24.5625 59.5802 24.9823 60 25.5 60C26.0177 60 26.4375 59.5802 26.4375 59.0625V51.75H29.8125V55.3125C29.8125 55.8302 30.2323 56.25 30.75 56.25C31.2677 56.25 31.6875 55.8302 31.6875 55.3125V51.75H35.0625V59.0625C35.0625 59.5802 35.4823 60 36 60C36.5177 60 36.9375 59.5802 36.9375 59.0625V51.75H40.3125V55.3125C40.3125 55.8302 40.7323 56.25 41.25 56.25C41.7677 56.25 42.1875 55.8302 42.1875 55.3125V51.75H45.5625V59.0625C45.5625 59.5802 45.9823 60 46.5 60C47.0177 60 47.4375 59.5802 47.4375 59.0625V51.6941C49.6297 51.3671 51.3671 49.6298 51.6941 47.4375H59.0625C59.5802 47.4375 60 47.0177 60 46.5C60 45.9823 59.5802 45.5625 59.0625 45.5625H51.75V42.1875H55.3125C55.8302 42.1875 56.25 41.7677 56.25 41.25C56.25 40.7323 55.8302 40.3125 55.3125 40.3125H51.75V36.9375H59.0625ZM49.875 46.6875C49.875 48.4451 48.4451 49.875 46.6875 49.875H25.3125C23.5549 49.875 22.125 48.4451 22.125 46.6875V25.3125C22.125 23.5549 23.5549 22.125 25.3125 22.125H46.6875C48.4451 22.125 49.875 23.5549 49.875 25.3125V46.6875Z" fill="#212B36"/>
<path d="M36.0122 26.625C36.2588 26.625 36.5006 26.5247 36.675 26.3503C36.8493 26.1759 36.9497 25.9341 36.9497 25.6875C36.9497 25.4409 36.8494 25.1991 36.675 25.0247C36.5006 24.8503 36.2588 24.75 36.0122 24.75C35.7647 24.75 35.5237 24.8503 35.3494 25.0247C35.1741 25.1991 35.0747 25.4409 35.0747 25.6875C35.0747 25.9341 35.1741 26.1759 35.3494 26.3503C35.5237 26.5247 35.7647 26.625 36.0122 26.625Z" fill="#212B36"/>
</g>
<defs>
<clipPath id="clip0_21778_13197">
<rect width="48" height="48" fill="white" transform="translate(12 12)"/>
</clipPath>
</defs>
</svg>
