<svg width="72" height="72" viewBox="0 0 72 72" fill="none" xmlns="http://www.w3.org/2000/svg">
<path d="M39.75 52.5H38.25V45.15C38.25 44.9511 38.171 44.7603 38.0303 44.6197C37.8897 44.479 37.6989 44.4 37.5 44.4C37.3011 44.4 37.1103 44.479 36.9697 44.6197C36.829 44.7603 36.75 44.9511 36.75 45.15V52.5H17.25V37.5H23.49C23.6889 37.5 23.8797 37.421 24.0203 37.2803C24.161 37.1397 24.24 36.9489 24.24 36.75C24.24 36.5511 24.161 36.3603 24.0203 36.2197C23.8797 36.079 23.6889 36 23.49 36H16.5C16.3011 36 16.1103 36.079 15.9697 36.2197C15.829 36.3603 15.75 36.5511 15.75 36.75V52.5H14.25C14.0511 52.5 13.8603 52.579 13.7197 52.7197C13.579 52.8603 13.5 53.0511 13.5 53.25V54.75C13.5 55.7446 13.8951 56.6984 14.5983 57.4016C15.3016 58.1049 16.2554 58.5 17.25 58.5H36.75C37.7446 58.5 38.6984 58.1049 39.4016 57.4016C40.1049 56.6984 40.5 55.7446 40.5 54.75V53.25C40.5 53.0511 40.421 52.8603 40.2803 52.7197C40.1397 52.579 39.9489 52.5 39.75 52.5ZM39 54.75C39 55.3467 38.7629 55.919 38.341 56.341C37.919 56.7629 37.3467 57 36.75 57H35.25V56.25C35.25 56.0511 35.171 55.8603 35.0303 55.7197C34.8897 55.579 34.6989 55.5 34.5 55.5C34.3011 55.5 34.1103 55.579 33.9697 55.7197C33.829 55.8603 33.75 56.0511 33.75 56.25V57H20.25V56.25C20.25 56.0511 20.171 55.8603 20.0303 55.7197C19.8897 55.579 19.6989 55.5 19.5 55.5C19.3011 55.5 19.1103 55.579 18.9697 55.7197C18.829 55.8603 18.75 56.0511 18.75 56.25V57H17.25C16.6533 57 16.081 56.7629 15.659 56.341C15.2371 55.919 15 55.3467 15 54.75V54H39V54.75Z" fill="#212B36"/>
<path d="M52.5 18H54C54.1989 18 54.3897 17.921 54.5303 17.7803C54.671 17.6397 54.75 17.4489 54.75 17.25C54.75 17.0511 54.671 16.8603 54.5303 16.7197C54.3897 16.579 54.1989 16.5 54 16.5H52.5C51.9033 16.5 51.331 16.737 50.909 17.159C50.4871 17.581 50.25 18.1533 50.25 18.75V19.5H49.5C49.3011 19.5 49.1103 19.579 48.9697 19.7197C48.829 19.8603 48.75 20.0511 48.75 20.25C48.75 20.4489 48.829 20.6397 48.9697 20.7803C49.1103 20.921 49.3011 21 49.5 21H50.25V23.25C50.25 23.4489 50.329 23.6397 50.4697 23.7803C50.6103 23.921 50.8011 24 51 24C51.1989 24 51.3897 23.921 51.5303 23.7803C51.671 23.6397 51.75 23.4489 51.75 23.25V21H52.5C52.6989 21 52.8897 20.921 53.0303 20.7803C53.171 20.6397 53.25 20.4489 53.25 20.25C53.25 20.0511 53.171 19.8603 53.0303 19.7197C52.8897 19.579 52.6989 19.5 52.5 19.5H51.75V18.75C51.75 18.5511 51.829 18.3603 51.9697 18.2197C52.1103 18.079 52.3011 18 52.5 18Z" fill="#212B36"/>
<path d="M56.25 13.5H47.25C46.6533 13.5 46.081 13.737 45.659 14.159C45.2371 14.581 45 15.1533 45 15.75V17.25C45 17.4489 45.079 17.6397 45.2197 17.7803C45.3603 17.921 45.5511 18 45.75 18C45.9489 18 46.1397 17.921 46.2803 17.7803C46.421 17.6397 46.5 17.4489 46.5 17.25V15.75C46.5 15.5511 46.579 15.3603 46.7197 15.2197C46.8603 15.079 47.0511 15 47.25 15H56.25C56.4489 15 56.6397 15.079 56.7803 15.2197C56.921 15.3603 57 15.5511 57 15.75V24.75C57 24.9489 56.921 25.1397 56.7803 25.2803C56.6397 25.421 56.4489 25.5 56.25 25.5H47.25C47.0511 25.5 46.8603 25.421 46.7197 25.2803C46.579 25.1397 46.5 24.9489 46.5 24.75V20.25C46.5 20.0511 46.421 19.8603 46.2803 19.7197C46.1397 19.579 45.9489 19.5 45.75 19.5C45.5511 19.5 45.3603 19.579 45.2197 19.7197C45.079 19.8603 45 20.0511 45 20.25V24.75C45 25.3467 45.2371 25.919 45.659 26.341C46.081 26.7629 46.6533 27 47.25 27H56.25C56.8467 27 57.419 26.7629 57.841 26.341C58.2629 25.919 58.5 25.3467 58.5 24.75V15.75C58.5 15.1533 58.2629 14.581 57.841 14.159C57.419 13.737 56.8467 13.5 56.25 13.5Z" fill="#212B36"/>
<path d="M48.75 43.5C48.75 44.0933 48.9259 44.6734 49.2556 45.1667C49.5852 45.6601 50.0538 46.0446 50.602 46.2716C51.1501 46.4987 51.7533 46.5581 52.3353 46.4424C52.9172 46.3266 53.4518 46.0409 53.8713 45.6213C54.2909 45.2018 54.5766 44.6672 54.6924 44.0853C54.8081 43.5033 54.7487 42.9001 54.5216 42.3519C54.2946 41.8038 53.9101 41.3352 53.4167 41.0056C52.9234 40.6759 52.3433 40.5 51.75 40.5C50.9544 40.5 50.1913 40.8161 49.6287 41.3787C49.0661 41.9413 48.75 42.7043 48.75 43.5ZM53.25 43.5C53.25 43.7967 53.162 44.0867 52.9972 44.3334C52.8324 44.58 52.5981 44.7723 52.324 44.8858C52.0499 44.9994 51.7483 45.0291 51.4574 44.9712C51.1664 44.9133 50.8991 44.7704 50.6893 44.5607C50.4796 44.3509 50.3367 44.0836 50.2788 43.7926C50.2209 43.5017 50.2507 43.2001 50.3642 42.926C50.4777 42.6519 50.67 42.4176 50.9166 42.2528C51.1633 42.088 51.4533 42 51.75 42C52.1478 42 52.5294 42.158 52.8107 42.4393C53.092 42.7206 53.25 43.1022 53.25 43.5Z" fill="#212B36"/>
<path d="M56.25 36.75H47.25C46.6533 36.75 46.081 36.987 45.659 37.409C45.2371 37.831 45 38.4033 45 39V48C45 48.5967 45.2371 49.169 45.659 49.591C46.081 50.0129 46.6533 50.25 47.25 50.25H56.25C56.8467 50.25 57.419 50.0129 57.841 49.591C58.2629 49.169 58.5 48.5967 58.5 48V46.5C58.5 46.3011 58.421 46.1103 58.2803 45.9697C58.1397 45.829 57.9489 45.75 57.75 45.75C57.5511 45.75 57.3603 45.829 57.2197 45.9697C57.079 46.1103 57 46.3011 57 46.5V48C57 48.1989 56.921 48.3897 56.7803 48.5303C56.6397 48.671 56.4489 48.75 56.25 48.75H47.25C47.0511 48.75 46.8603 48.671 46.7197 48.5303C46.579 48.3897 46.5 48.1989 46.5 48V39C46.5 38.8011 46.579 38.6103 46.7197 38.4697C46.8603 38.329 47.0511 38.25 47.25 38.25H56.25C56.4489 38.25 56.6397 38.329 56.7803 38.4697C56.921 38.6103 57 38.8011 57 39V43.5C57 43.6989 57.079 43.8897 57.2197 44.0303C57.3603 44.171 57.5511 44.25 57.75 44.25C57.9489 44.25 58.1397 44.171 58.2803 44.0303C58.421 43.8897 58.5 43.6989 58.5 43.5V39C58.5 38.4033 58.2629 37.831 57.841 37.409C57.419 36.987 56.8467 36.75 56.25 36.75Z" fill="#212B36"/>
<path d="M30.3525 22.388C30.4718 22.462 30.6096 22.501 30.75 22.5005C30.8674 22.4998 30.983 22.4715 31.0875 22.418L35.5875 20.168C35.7103 20.1051 35.8134 20.0094 35.8854 19.8917C35.9574 19.7739 35.9955 19.6385 35.9955 19.5005C35.9955 19.3625 35.9574 19.2271 35.8854 19.1093C35.8134 18.9916 35.7103 18.8959 35.5875 18.833L31.0875 16.583C30.9733 16.5255 30.8463 16.4981 30.7186 16.5034C30.5909 16.5088 30.4666 16.5467 30.3577 16.6136C30.2487 16.6805 30.1586 16.7741 30.096 16.8855C30.0334 16.997 30.0004 17.1227 30 17.2505V21.7505C29.9997 21.878 30.032 22.0034 30.0936 22.1149C30.1553 22.2265 30.2444 22.3204 30.3525 22.388ZM31.5 18.4655L33.57 19.5005L31.5 20.5355V18.4655Z" fill="#212B36"/>
<path d="M32.25 26.25C33.585 26.25 34.8901 25.8541 36.0001 25.1124C37.1101 24.3707 37.9753 23.3165 38.4862 22.0831C38.9971 20.8497 39.1308 19.4925 38.8703 18.1831C38.6099 16.8737 37.967 15.671 37.023 14.727C36.079 13.783 34.8762 13.1401 33.5669 12.8797C32.2575 12.6192 30.9003 12.7529 29.6669 13.2638C28.4335 13.7747 27.3793 14.6398 26.6376 15.7499C25.8959 16.8599 25.5 18.1649 25.5 19.5C25.5 21.2902 26.2112 23.0071 27.477 24.2729C28.7429 25.5388 30.4598 26.25 32.25 26.25ZM32.25 14.25C33.2884 14.25 34.3034 14.5579 35.1667 15.1348C36.0301 15.7116 36.703 16.5316 37.1004 17.4909C37.4977 18.4502 37.6017 19.5058 37.3991 20.5242C37.1966 21.5426 36.6965 22.4781 35.9623 23.2123C35.2281 23.9465 34.2926 24.4465 33.2742 24.6491C32.2558 24.8517 31.2002 24.7477 30.2409 24.3503C29.2816 23.953 28.4617 23.2801 27.8848 22.4167C27.3079 21.5534 27 20.5383 27 19.5C27 18.1076 27.5531 16.7722 28.5377 15.7877C29.5223 14.8031 30.8576 14.25 32.25 14.25Z" fill="#212B36"/>
<path d="M39.75 29.25C39.8664 29.25 39.9812 29.2229 40.0854 29.1708C40.1895 29.1187 40.2801 29.0431 40.35 28.95L42.6 25.95C42.7193 25.7908 42.7706 25.5908 42.7424 25.3939C42.7143 25.197 42.6091 25.0193 42.45 24.9C42.2908 24.7806 42.0908 24.7294 41.8939 24.7575C41.697 24.7856 41.5193 24.8908 41.4 25.05L39.15 28.05C39.0306 28.2091 38.9794 28.4091 39.0075 28.606C39.0356 28.803 39.1408 28.9806 39.3 29.1C39.4298 29.1973 39.5877 29.25 39.75 29.25Z" fill="#212B36"/>
<path d="M41.4 31.95C41.4698 32.0431 41.5604 32.1187 41.6646 32.1708C41.7687 32.2229 41.8835 32.25 42 32.25C42.1623 32.25 42.3202 32.1973 42.45 32.1L45.45 29.85C45.6091 29.7306 45.7143 29.553 45.7424 29.356C45.7706 29.1591 45.7193 28.9591 45.6 28.8C45.4806 28.6408 45.303 28.5356 45.106 28.5075C44.9091 28.4794 44.7091 28.5306 44.55 28.65L41.55 30.9C41.3909 31.0193 41.2856 31.197 41.2575 31.3939C41.2294 31.5908 41.2806 31.7908 41.4 31.95Z" fill="#212B36"/>
<path d="M48.75 33.5995C48.7321 33.5 48.6944 33.4052 48.639 33.3207C48.5837 33.2362 48.5118 33.1638 48.4278 33.1078C48.3437 33.0517 48.2492 33.0133 48.1499 32.9946C48.0506 32.976 47.9486 32.9777 47.85 32.9995L44.1 33.7495C44.0015 33.7593 43.9059 33.7885 43.8187 33.8353C43.7314 33.882 43.6543 33.9456 43.5916 34.0222C43.465 34.1769 43.4051 34.3755 43.425 34.5745C43.4449 34.7734 43.5429 34.9562 43.6977 35.0828C43.8524 35.2094 44.051 35.2694 44.25 35.2495H44.4L48.15 34.4995C48.2494 34.4816 48.3442 34.4439 48.4287 34.3885C48.5132 34.3332 48.5856 34.2613 48.6417 34.1773C48.6977 34.0932 48.7362 33.9987 48.7548 33.8994C48.7734 33.8001 48.7717 33.6981 48.75 33.5995Z" fill="#212B36"/>
<path d="M14.25 33.75H23.25C23.4489 33.75 23.6397 33.671 23.7803 33.5303C23.921 33.3897 24 33.1989 24 33V21C24 20.8011 23.921 20.6103 23.7803 20.4697C23.6397 20.329 23.4489 20.25 23.25 20.25H14.25C14.0511 20.25 13.8603 20.329 13.7197 20.4697C13.579 20.6103 13.5 20.8011 13.5 21V33C13.5 33.1989 13.579 33.3897 13.7197 33.5303C13.8603 33.671 14.0511 33.75 14.25 33.75ZM15 21.75H22.5V32.25H15V21.75Z" fill="#212B36"/>
<path d="M20.25 23.25H18.75C18.5511 23.25 18.3603 23.329 18.2197 23.4697C18.079 23.6103 18 23.8011 18 24C18 24.1989 18.079 24.3897 18.2197 24.5303C18.3603 24.671 18.5511 24.75 18.75 24.75H20.25C20.4489 24.75 20.6397 24.671 20.7803 24.5303C20.921 24.3897 21 24.1989 21 24C21 23.8011 20.921 23.6103 20.7803 23.4697C20.6397 23.329 20.4489 23.25 20.25 23.25Z" fill="#212B36"/>
<path d="M20.25 26.25H17.25C17.0511 26.25 16.8603 26.329 16.7197 26.4697C16.579 26.6103 16.5 26.8011 16.5 27C16.5 27.1989 16.579 27.3897 16.7197 27.5303C16.8603 27.671 17.0511 27.75 17.25 27.75H20.25C20.4489 27.75 20.6397 27.671 20.7803 27.5303C20.921 27.3897 21 27.1989 21 27C21 26.8011 20.921 26.6103 20.7803 26.4697C20.6397 26.329 20.4489 26.25 20.25 26.25Z" fill="#212B36"/>
<path d="M20.25 29.25H17.25C17.0511 29.25 16.8603 29.329 16.7197 29.4697C16.579 29.6103 16.5 29.8011 16.5 30C16.5 30.1989 16.579 30.3897 16.7197 30.5303C16.8603 30.671 17.0511 30.75 17.25 30.75H20.25C20.4489 30.75 20.6397 30.671 20.7803 30.5303C20.921 30.3897 21 30.1989 21 30C21 29.8011 20.921 29.6103 20.7803 29.4697C20.6397 29.329 20.4489 29.25 20.25 29.25Z" fill="#212B36"/>
<path d="M39.0901 33.5251C39.0409 33.4394 38.9752 33.3642 38.8969 33.3039C38.8187 33.2436 38.7293 33.1993 38.6338 33.1735C38.5384 33.1477 38.4389 33.141 38.3409 33.1537C38.2428 33.1664 38.1483 33.1983 38.0626 33.2476C37.9769 33.2968 37.9018 33.3624 37.8415 33.4407C37.7811 33.519 37.7368 33.6084 37.7111 33.7038C37.6853 33.7992 37.6786 33.8988 37.6913 33.9968C37.704 34.0948 37.7359 34.1894 37.7851 34.2751L41.0926 39.9976L29.0926 44.4976C29.0926 44.4976 29.0926 44.4976 29.0401 44.4976H28.9801L25.7326 46.3726C25.5618 46.4713 25.3732 46.5354 25.1776 46.5611C24.9819 46.5869 24.7832 46.5738 24.5926 46.5226C24.2098 46.4191 23.8835 46.1684 23.6851 45.8251L22.1851 43.2301C22.0086 42.8905 21.9686 42.4964 22.0732 42.1283C22.1777 41.7603 22.419 41.4461 22.7476 41.2501L25.3426 39.7501L27.2176 42.9976C27.2837 43.112 27.3788 43.207 27.4934 43.2728C27.608 43.3387 27.738 43.3731 27.8701 43.3726C28.002 43.3731 28.1317 43.3388 28.2462 43.2732C28.3606 43.2076 28.4557 43.1129 28.5219 42.9988C28.5881 42.8847 28.623 42.7552 28.6231 42.6233C28.6232 42.4914 28.5886 42.3618 28.5226 42.2476L26.5876 38.9026L36.0001 31.1401L36.3076 31.6726C36.3569 31.7582 36.4225 31.8334 36.5008 31.8937C36.5791 31.954 36.6685 31.9983 36.7639 32.0241C36.8593 32.0499 36.9589 32.0566 37.0569 32.0439C37.1549 32.0312 37.2494 31.9993 37.3351 31.9501C37.4208 31.9008 37.496 31.8352 37.5563 31.7569C37.6166 31.6786 37.6609 31.5892 37.6867 31.4938C37.7124 31.3984 37.7192 31.2988 37.7065 31.2008C37.6937 31.1028 37.6619 31.0082 37.6126 30.9226L36.8626 29.6251C36.8077 29.5311 36.7329 29.4502 36.6435 29.388C36.5542 29.3259 36.4523 29.2839 36.3451 29.2651C36.2373 29.2447 36.1264 29.2483 36.0201 29.2755C35.9139 29.3027 35.8149 29.3529 35.7301 29.4226L25.2301 38.0776L22.0351 39.9226C21.4617 40.2565 21.0153 40.7711 20.7656 41.3859C20.5159 42.0007 20.477 42.6809 20.6551 43.3201L19.9051 43.7476C19.5187 43.9695 19.2068 44.3011 19.0091 44.7005C18.8114 45.0998 18.7368 45.5489 18.7946 45.9908C18.8525 46.4326 19.0402 46.8473 19.334 47.1824C19.6279 47.5174 20.0146 47.7576 20.4451 47.8726C20.636 47.9231 20.8327 47.9483 21.0301 47.9476C21.4247 47.9459 21.8121 47.8426 22.1551 47.6476L22.9051 47.2201C23.2654 47.5922 23.7185 47.8615 24.2176 48.0001C24.4739 48.0717 24.739 48.1071 25.0051 48.1051C25.5323 48.1063 26.0502 47.9664 26.5051 47.7001L27.1576 47.3251L28.6576 49.9276C28.9557 50.4429 29.446 50.8192 30.0209 50.9738C30.5959 51.1284 31.2087 51.0489 31.7251 50.7526C31.9813 50.6049 32.2059 50.4083 32.386 50.1738C32.5662 49.9393 32.6983 49.6716 32.775 49.386C32.8516 49.1005 32.8712 48.8026 32.8326 48.5094C32.794 48.2163 32.698 47.9336 32.5501 47.6776L31.1851 45.3001L42.4351 41.0776C42.5371 41.0392 42.6296 40.9791 42.706 40.9014C42.7824 40.8236 42.841 40.7302 42.8776 40.6276C42.9141 40.5261 42.9283 40.418 42.9193 40.3106C42.9102 40.2032 42.8781 40.0989 42.8251 40.0051L39.0901 33.5251ZM21.3751 46.3426C21.2897 46.3919 21.1954 46.424 21.0976 46.4368C20.9998 46.4497 20.9004 46.4432 20.8051 46.4176C20.613 46.3676 20.4484 46.2436 20.3476 46.0726C20.2982 45.9871 20.2662 45.8928 20.2533 45.795C20.2405 45.6972 20.247 45.5978 20.2726 45.5026C20.2982 45.4068 20.3426 45.317 20.4031 45.2385C20.4636 45.16 20.539 45.0942 20.6251 45.0451L21.2776 44.6701L22.0276 45.9676L21.3751 46.3426ZM31.2451 48.4426C31.2945 48.528 31.3265 48.6223 31.3394 48.7201C31.3523 48.8179 31.3457 48.9173 31.3201 49.0126C31.2666 49.2032 31.1399 49.365 30.9676 49.4626C30.7963 49.561 30.5931 49.5878 30.4021 49.5372C30.2111 49.4867 30.0478 49.3628 29.9476 49.1926L28.4476 46.59L29.6926 45.8776H29.7526L31.2451 48.4426Z" fill="#212B36"/>
</svg>
