<svg width="24" height="24" viewBox="0 0 24 24" fill="none" xmlns="http://www.w3.org/2000/svg">
<path d="M18.5991 10.6346L18.7013 11H19.0807H20.5V11.5H19.5H19V12V17.2494C18.9997 17.5147 18.8941 17.769 18.7066 17.9566C18.519 18.1441 18.2647 18.2497 17.9994 18.25L17.5 18.2506V18.75V20.5H17V18.75V18.25H16.5H7.5H7V18.75V20.5H6.5V18.75V18.2506L6.00062 18.25C5.73534 18.2497 5.48102 18.1441 5.29344 17.9566C5.10592 17.769 5.0004 17.5148 5 17.2496V12V11.5H4.5H3.5V11H4.89862H5.27578L5.37939 10.6374L6.35379 7.22695C6.35385 7.22672 6.35392 7.22649 6.35399 7.22626C6.41454 7.01749 6.54103 6.83392 6.71458 6.70301C6.88811 6.5721 7.09936 6.50089 7.31672 6.5H16.6833C16.9006 6.50087 17.1118 6.57204 17.2854 6.70288C17.4586 6.83346 17.5849 7.01645 17.6457 7.22461L18.5991 10.6346ZM7.3158 7H6.93866L6.83504 7.36263L5.76352 11.1126L5.58139 11.75H6.24427H17.7557H18.4186L18.2365 11.1126L17.1651 7.36265L17.0615 7H16.6844H7.3158ZM18.5 15.75V15.25H18H17V14.75H18H18.5V14.25V12.75V12.25H18H6H5.5V12.75V14.25V14.75H6H7V15.25H6H5.5V15.75V17.25V17.75H6H18H18.5V17.25V15.75ZM10.25 15.25V14.75H13.75V15.25H10.25Z" fill="#FA541C" stroke="#FA541C"/>
</svg>
