<svg width="18" height="18" viewBox="0 0 18 18" fill="none" xmlns="http://www.w3.org/2000/svg">
<path d="M12.6033 6.20687C13.0506 6.20687 13.4133 5.84422 13.4133 5.39687C13.4133 4.94952 13.0506 4.58687 12.6033 4.58687C12.1559 4.58687 11.7933 4.94952 11.7933 5.39687C11.7933 5.84422 12.1559 6.20687 12.6033 6.20687Z" fill="#212B36"/>
<path d="M9.00035 5.53375C8.31479 5.53375 7.64463 5.73704 7.07461 6.11791C6.50459 6.49879 6.06031 7.04014 5.79796 7.67351C5.53561 8.30688 5.46697 9.00383 5.60071 9.67621C5.73446 10.3486 6.06459 10.9662 6.54935 11.451C7.03411 11.9357 7.65173 12.2659 8.32412 12.3996C8.9965 12.5334 9.69345 12.4647 10.3268 12.2024C10.9602 11.94 11.5015 11.4957 11.8824 10.9257C12.2633 10.3557 12.4666 9.68554 12.4666 8.99998C12.4666 8.08068 12.1014 7.19903 11.4513 6.54898C10.8013 5.89894 9.91965 5.53375 9.00035 5.53375ZM9.00035 11.25C8.55534 11.25 8.12033 11.118 7.75032 10.8708C7.38031 10.6236 7.09192 10.2722 6.92162 9.86102C6.75132 9.44989 6.70676 8.99749 6.79358 8.56103C6.8804 8.12457 7.09469 7.72366 7.40936 7.40899C7.72403 7.09432 8.12494 6.88003 8.5614 6.79322C8.99785 6.7064 9.45025 6.75096 9.86139 6.92125C10.2725 7.09155 10.6239 7.37994 10.8712 7.74995C11.1184 8.11996 11.2503 8.55498 11.2503 8.99998C11.2503 9.59672 11.0133 10.169 10.5913 10.591C10.1694 11.0129 9.59709 11.25 9.00035 11.25Z" fill="#212B36"/>
<path d="M9 3.46624C10.8023 3.46624 11.0158 3.4731 11.7276 3.50561C12.1556 3.51071 12.5796 3.58933 12.981 3.73804C13.2721 3.85036 13.5364 4.02237 13.7571 4.24299C13.9777 4.46362 14.1497 4.72798 14.262 5.01907C14.4107 5.42048 14.4893 5.84446 14.4944 6.27249C14.5269 6.98423 14.5338 7.19775 14.5338 9.00006C14.5338 10.8024 14.527 11.0159 14.4944 11.7276C14.4893 12.1557 14.4107 12.5796 14.262 12.981C14.1497 13.2721 13.9777 13.5365 13.7571 13.7571C13.5364 13.9777 13.2721 14.1498 12.981 14.2621C12.5796 14.4108 12.1556 14.4894 11.7276 14.4945C11.0159 14.527 10.8025 14.5339 9 14.5339C7.19753 14.5339 6.98411 14.527 6.27244 14.4945C5.8444 14.4894 5.42042 14.4108 5.01902 14.2621C4.72792 14.1498 4.46356 13.9777 4.24294 13.7571C4.02231 13.5365 3.8503 13.2721 3.73798 12.981C3.58927 12.5796 3.51065 12.1557 3.50556 11.7276C3.4731 11.0159 3.46618 10.8024 3.46618 9.00006C3.46618 7.19775 3.47304 6.98423 3.50556 6.27249C3.51065 5.84446 3.58927 5.42048 3.73798 5.01907C3.8503 4.72797 4.0223 4.4636 4.24293 4.24296C4.46355 4.02233 4.72792 3.85031 5.01902 3.73798C5.42042 3.58927 5.8444 3.51065 6.27244 3.50556C6.98417 3.4731 7.19769 3.46624 9 3.46624ZM9 2.25C7.16681 2.25 6.93692 2.25776 6.21697 2.29061C5.65709 2.30185 5.10317 2.40794 4.57875 2.60438C4.13029 2.7778 3.72301 3.04301 3.38301 3.38301C3.04301 3.72301 2.7778 4.13029 2.60438 4.57875C2.40791 5.10325 2.30182 5.65728 2.29061 6.21726C2.25776 6.93692 2.25 7.16681 2.25 9C2.25 10.8332 2.25776 11.0631 2.29061 11.783C2.30183 12.343 2.40792 12.897 2.60438 13.4215C2.7778 13.87 3.04301 14.2773 3.38301 14.6173C3.72301 14.9573 4.13029 15.2225 4.57875 15.3959C5.10325 15.5924 5.65728 15.6985 6.21726 15.7097C6.93692 15.7422 7.16681 15.75 9 15.75C10.8332 15.75 11.0631 15.7422 11.783 15.7094C12.343 15.6982 12.897 15.5921 13.4215 15.3956C13.87 15.2222 14.2773 14.957 14.6173 14.617C14.9573 14.277 15.2225 13.8697 15.3959 13.4213C15.5924 12.8967 15.6985 12.3427 15.7097 11.7827C15.7422 11.0631 15.75 10.8332 15.75 9C15.75 7.16681 15.7422 6.93692 15.7094 6.21697C15.6981 5.65709 15.5921 5.10317 15.3956 4.57875C15.2222 4.13034 14.9569 3.72311 14.6169 3.38317C14.277 3.04322 13.8697 2.77805 13.4213 2.60466C12.8967 2.4082 12.3427 2.30211 11.7827 2.29089C11.0631 2.25776 10.8332 2.25 9 2.25Z" fill="#212B36"/>
</svg>
