<svg width="74" height="20" viewBox="0 0 74 20" fill="none" xmlns="http://www.w3.org/2000/svg">
<ellipse cx="68.1421" cy="14.1667" rx="4.10497" ry="4.16666" fill="#FA541C"/>
<path d="M48.712 18.3332H44.6882L37.9582 8.05302V18.3332H33.9343V1.6665H37.9582L44.6882 11.9941V1.6665H48.712V18.3332Z" fill="#212B36"/>
<path d="M54.8192 4.91912V8.29044H60.2059V11.4243H54.8192V15.0806H60.7532V18.3332H50.9013V1.6665H60.7532V4.91912H54.8192Z" fill="#212B36"/>
<path d="M23.5579 18.3332C22.0528 18.3332 20.6692 17.9777 19.4073 17.2669C18.1607 16.556 17.1648 15.567 16.4199 14.2998C15.6901 13.0171 15.3252 11.58 15.3252 9.98825C15.3252 8.39653 15.6901 6.96708 16.4199 5.69988C17.1648 4.43269 18.1607 3.44366 19.4073 2.7328C20.6692 2.02194 22.0528 1.6665 23.5579 1.6665C25.063 1.6665 26.439 2.02194 27.6856 2.7328C28.9475 3.44366 29.9358 4.43269 30.6503 5.69988C31.3801 6.96708 31.745 8.39653 31.745 9.98825C31.745 11.58 31.3801 13.0171 30.6503 14.2998C29.9206 15.567 28.9323 16.556 27.6856 17.2669C26.439 17.9777 25.063 18.3332 23.5579 18.3332ZM23.5579 14.717C24.835 14.717 25.8536 14.2843 26.6138 13.4189C27.3892 12.5535 27.7769 11.41 27.7769 9.98825C27.7769 8.55107 27.3892 7.4075 26.6138 6.55756C25.8536 5.69216 24.835 5.25946 23.5579 5.25946C22.2656 5.25946 21.2318 5.68443 20.4564 6.53438C19.6962 7.38432 19.3161 8.53561 19.3161 9.98825C19.3161 11.4254 19.6962 12.5767 20.4564 13.4421C21.2318 14.2921 22.2656 14.717 23.5579 14.717Z" fill="#212B36"/>
<path d="M6.13766 15.0093H13.1359V18.3332H1.64209V15.2468L8.594 4.99034H1.64209V1.6665H13.1359V4.75292L6.13766 15.0093Z" fill="#212B36"/>
</svg>
