<svg width="24" height="24" viewBox="0 0 24 24" fill="none" xmlns="http://www.w3.org/2000/svg">
<path d="M12.9423 10.4135L12.25 10.125V10.875V15V15.2676L12.4727 15.416L14.1209 16.5148L12.1213 16.0149L12 15.9846L11.8787 16.0149L9.87916 16.5148L11.5274 15.416L11.75 15.2676V15V10.875V10.125L11.0577 10.4135L7.25001 12V11.559L11.4736 9.44722L11.75 9.30902V9.00001V6.75001C11.75 6.6837 11.7763 6.62011 11.8232 6.57323C11.8701 6.52635 11.9337 6.50001 12 6.50001C12.0663 6.50001 12.1299 6.52635 12.1768 6.57323C12.2237 6.62011 12.25 6.6837 12.25 6.75001V9.00001V9.30902L12.5264 9.44722L16.75 11.559V12L12.9423 10.4135ZM12.0006 2.5H12C10.1211 2.5 8.28435 3.05717 6.72209 4.10104C5.15982 5.14492 3.94218 6.62861 3.22315 8.36451C2.50412 10.1004 2.31598 12.0105 2.68254 13.8534C3.0491 15.6962 3.95389 17.3889 5.28249 18.7175C6.61109 20.0461 8.30383 20.9509 10.1466 21.3175C11.9895 21.684 13.8996 21.4959 15.6355 20.7769C17.3714 20.0578 18.8551 18.8402 19.899 17.2779C20.9428 15.7157 21.5 13.8789 21.5 12V11.9994C21.4971 9.48091 20.4954 7.06636 18.7145 5.28549C16.9336 3.50463 14.5191 2.50288 12.0006 2.5ZM11.9994 22C10.0218 21.9999 8.08864 21.4134 6.4443 20.3147C4.79981 19.2159 3.51809 17.6541 2.76121 15.8268C2.00433 13.9996 1.8063 11.9889 2.19215 10.0491C2.578 8.10929 3.53041 6.32746 4.92894 4.92894C6.32746 3.53041 8.10929 2.578 10.0491 2.19215C11.9889 1.8063 13.9996 2.00433 15.8268 2.76121C17.6541 3.51809 19.2159 4.79981 20.3147 6.4443C21.4134 8.08864 21.9999 10.0218 22 11.9994C21.997 14.6508 20.9424 17.1928 19.0676 19.0676C17.1928 20.9424 14.6508 21.997 11.9994 22Z" fill="#FA541C" stroke="#FA541C"/>
</svg>
