<svg width="24" height="24" viewBox="0 0 24 24" fill="none" xmlns="http://www.w3.org/2000/svg">
<path d="M10.6111 10.9107C11.022 11.1853 11.5052 11.3319 11.9994 11.332C12.6624 11.3313 13.298 11.0676 13.7668 10.5988C14.2356 10.13 14.4992 9.49446 14.5 8.83152L10.6111 10.9107ZM10.6111 10.9107C10.2 10.636 9.87952 10.2456 9.6903 9.78874M10.6111 10.9107L9.6903 9.78874M9.6903 9.78874C9.50108 9.33193 9.45157 8.82926 9.54804 8.34431M9.6903 9.78874L9.54804 8.34431M9.54804 8.34431C9.6445 7.85935 9.8826 7.41389 10.2322 7.06426M9.54804 8.34431L10.2322 7.06426M10.2322 7.06426C10.5819 6.71463 11.0273 6.47653 11.5123 6.38007M10.2322 7.06426L11.5123 6.38007M11.5123 6.38007C11.9972 6.2836 12.4999 6.33311 12.9567 6.52233M11.5123 6.38007L12.9567 6.52233M12.9567 6.52233C13.4135 6.71155 13.804 7.03198 14.0787 7.44311M12.9567 6.52233L14.0787 7.44311M14.0787 7.44311C14.3533 7.85407 14.4999 8.33721 14.5 8.83147L14.0787 7.44311ZM12.0005 6.83203H12C11.6044 6.83203 11.2178 6.94933 10.8889 7.16909C10.56 7.38885 10.3036 7.70121 10.1522 8.06667C10.0009 8.43212 9.96126 8.83425 10.0384 9.22221C10.1156 9.61017 10.3061 9.96654 10.5858 10.2462C10.8655 10.5259 11.2219 10.7164 11.6098 10.7936C11.9978 10.8708 12.3999 10.8312 12.7654 10.6798C13.1308 10.5284 13.4432 10.2721 13.6629 9.94317C13.8827 9.61427 14 9.22759 14 8.83203V8.83153C13.9995 8.30139 13.7886 7.79312 13.4138 7.41826C13.0389 7.04339 12.5306 6.83256 12.0005 6.83203ZM21.5 4.33203V3.83203H21H3H2.5V4.33203V13.332V13.832H3H21H21.5V13.332V4.33203ZM2 17.332V16.832H22V17.332H2ZM2 20.332V19.832H22V20.332H2ZM17.4444 8.00056C17.6089 7.89068 17.8022 7.83203 18 7.83203C18.2652 7.83203 18.5196 7.93739 18.7071 8.12493C18.8946 8.31246 19 8.56681 19 8.83203C19 9.02981 18.9414 9.22315 18.8315 9.3876C18.7216 9.55205 18.5654 9.68022 18.3827 9.75591C18.2 9.8316 17.9989 9.8514 17.8049 9.81282C17.6109 9.77423 17.4327 9.67899 17.2929 9.53914C17.153 9.39928 17.0578 9.2211 17.0192 9.02712C16.9806 8.83314 17.0004 8.63207 17.0761 8.44935C17.1518 8.26662 17.28 8.11044 17.4444 8.00056ZM5.44443 8.00056C5.60888 7.89068 5.80222 7.83203 6 7.83203C6.26522 7.83203 6.51957 7.93739 6.70711 8.12492C6.89464 8.31246 7 8.56681 7 8.83203C7 9.02981 6.94135 9.22315 6.83147 9.3876C6.72159 9.55205 6.56541 9.68022 6.38268 9.75591C6.19996 9.8316 5.99889 9.8514 5.80491 9.81282C5.61093 9.77423 5.43275 9.67899 5.29289 9.53914C5.15304 9.39928 5.0578 9.2211 5.01921 9.02712C4.98063 8.83314 5.00043 8.63207 5.07612 8.44935C5.15181 8.26662 5.27998 8.11044 5.44443 8.00056ZM3.0007 3.33203H20.9993C21.2644 3.33286 21.5185 3.43854 21.706 3.62604C21.8935 3.81351 21.9992 4.06753 22 4.33264C22 4.33286 22 4.33308 22 4.3333L22 13.3314C21.9996 13.5966 21.8941 13.851 21.7065 14.0385C21.5189 14.2261 21.2646 14.3317 20.9993 14.332H3.00061C2.7355 14.3312 2.48148 14.2255 2.29401 14.038C2.10651 13.8505 2.00082 13.5965 2 13.3313V4.33273C2.00082 4.06759 2.10651 3.81353 2.29401 3.62604C2.4815 3.43855 2.73556 3.33286 3.0007 3.33203Z" fill="#FA541C" stroke="#FA541C"/>
</svg>
