<svg width="24" height="24" viewBox="0 0 24 24" fill="none" xmlns="http://www.w3.org/2000/svg">
<path d="M3 11.5H2.5V12V21V21.5H3H7.5H8V21V12V11.5H7.5H3ZM4.5 4H4V4.5V8.5H3.5V4.5C3.5 4.23478 3.60536 3.98043 3.79289 3.79289C3.98043 3.60536 4.23478 3.5 4.5 3.5H21C21.2652 3.5 21.5196 3.60536 21.7071 3.79289C21.8946 3.98043 22 4.23478 22 4.5V15C22 15.2652 21.8946 15.5196 21.7071 15.7071C21.5196 15.8946 21.2652 16 21 16H13.5H13V16.5V19.5V20H13.5H16.75V20.5H11V20H12H12.5V19.5V16.5V16H12H11V15.5H21H21.5V15V4.5V4H21H4.5ZM7.5 22H3C2.73478 22 2.48043 21.8946 2.29289 21.7071C2.10536 21.5196 2 21.2652 2 21V12C2 11.7348 2.10536 11.4804 2.29289 11.2929C2.48043 11.1054 2.73478 11 3 11H7.5C7.76522 11 8.01957 11.1054 8.20711 11.2929C8.39464 11.4804 8.5 11.7348 8.5 12V21C8.5 21.2652 8.39464 21.5196 8.20711 21.7071C8.01957 21.8946 7.76522 22 7.5 22Z" fill="#FA541C" stroke="#FA541C"/>
</svg>
