<svg width="24" height="24" viewBox="0 0 24 24" fill="none" xmlns="http://www.w3.org/2000/svg">
<path d="M2.5 20.25V22H2V20.2503C2.00037 19.9851 2.10588 19.7309 2.2934 19.5434C2.48098 19.3558 2.7353 19.2503 3.00057 19.25H5.99943C6.2647 19.2503 6.51902 19.3558 6.7066 19.5434C6.8941 19.7309 6.9996 19.9851 7 20.2502C7 20.2503 7 20.2505 7 20.2506L7 22H6.5V20.25V19.75H6H3H2.5V20.25ZM17.5 20.25V22H17V20.2506C17.0003 19.9853 17.1058 19.731 17.2934 19.5434C17.481 19.3558 17.7353 19.2503 18.0006 19.25H20.9994C21.2647 19.2503 21.519 19.3558 21.7066 19.5434C21.8942 19.731 21.9997 19.9853 22 20.2506V22H21.5V20.25V19.75H21H18H17.5V20.25ZM14.5 20.2506V22H14V20.25V19.75H13.5H10.5H10V20.25V22H9.5L9.5 20.2506C9.5 20.2505 9.5 20.2503 9.5 20.2502C9.5004 19.9851 9.6059 19.7309 9.7934 19.5434C9.98098 19.3558 10.2353 19.2503 10.5006 19.25H13.4994C13.7647 19.2503 14.019 19.3558 14.2066 19.5434C14.3942 19.731 14.4997 19.9853 14.5 20.2506ZM4.5 2.5H4V3V9V9.5H4.5H19.5H20V9V3V2.5H19.5H4.5ZM13 16.5C13 17.0523 12.5523 17.5 12 17.5C11.4477 17.5 11 17.0523 11 16.5C11 15.9477 11.4477 15.5 12 15.5C12.5523 15.5 13 15.9477 13 16.5ZM5.5 16.5C5.5 17.0523 5.05228 17.5 4.5 17.5C3.94772 17.5 3.5 17.0523 3.5 16.5C3.5 15.9477 3.94772 15.5 4.5 15.5C5.05228 15.5 5.5 15.9477 5.5 16.5ZM20.5 16.5C20.5 17.0523 20.0523 17.5 19.5 17.5C18.9477 17.5 18.5 17.0523 18.5 16.5C18.5 15.9477 18.9477 15.5 19.5 15.5C20.0523 15.5 20.5 15.9477 20.5 16.5ZM16.75 13.5C16.75 14.0523 16.3023 14.5 15.75 14.5C15.1977 14.5 14.75 14.0523 14.75 13.5C14.75 12.9477 15.1977 12.5 15.75 12.5C16.3023 12.5 16.75 12.9477 16.75 13.5ZM9.25 13.5C9.25 14.0523 8.80228 14.5 8.25 14.5C7.69772 14.5 7.25 14.0523 7.25 13.5C7.25 12.9477 7.69772 12.5 8.25 12.5C8.80228 12.5 9.25 12.9477 9.25 13.5ZM19.4994 10H4.50057C4.2353 9.9997 3.98098 9.89418 3.7934 9.7066C3.60588 9.51909 3.50038 9.26488 3.5 8.9997V3.0003C3.50038 2.73512 3.60589 2.48091 3.7934 2.2934C3.98091 2.10588 4.23513 2.00037 4.50032 2H19.4997C19.7649 2.00037 20.0191 2.10588 20.2066 2.2934C20.3942 2.48098 20.4997 2.7353 20.5 3.00057V8.99943C20.4997 9.2647 20.3942 9.51902 20.2066 9.7066C20.019 9.89418 19.7647 9.9997 19.4994 10Z" fill="#FA541C" stroke="#FA541C"/>
</svg>
