<svg width="24" height="24" viewBox="0 0 24 24" fill="none" xmlns="http://www.w3.org/2000/svg">
<mask id="path-1-inside-1_1381_61713" fill="white">
<path d="M7.49988 23.25H4.49988C4.10242 23.2488 3.72156 23.0904 3.44051 22.8094C3.15946 22.5283 3.00105 22.1475 2.99988 21.75V16.5C2.60242 16.4988 2.22156 16.3404 1.94051 16.0594C1.65946 15.7783 1.50105 15.3975 1.49988 15V10.5C1.49444 10.203 1.54892 9.90801 1.66007 9.63256C1.77121 9.35712 1.93674 9.10691 2.14677 8.89689C2.3568 8.68686 2.60701 8.52133 2.88245 8.41018C3.15789 8.29904 3.45291 8.24456 3.74988 8.25H8.24988C8.54685 8.24456 8.84188 8.29904 9.11732 8.41018C9.39276 8.52133 9.64297 8.68686 9.853 8.89689C10.063 9.10691 10.2286 9.35712 10.3397 9.63256C10.4508 9.90801 10.5053 10.203 10.4999 10.5V15C10.4987 15.3975 10.3403 15.7783 10.0593 16.0594C9.7782 16.3404 9.39735 16.4988 8.99988 16.5V21.75C8.99871 22.1475 8.8403 22.5283 8.55925 22.8094C8.2782 23.0904 7.89735 23.2488 7.49988 23.25ZM3.74988 9.75C3.64982 9.74396 3.54961 9.75922 3.45588 9.79478C3.36215 9.83033 3.27703 9.88537 3.20614 9.95626C3.13525 10.0271 3.08022 10.1123 3.04466 10.206C3.00911 10.2997 2.99384 10.3999 2.99988 10.5V15H4.49988V21.75H7.49988V15H8.99988V10.5C9.00592 10.3999 8.99066 10.2997 8.9551 10.206C8.91955 10.1123 8.86451 10.0271 8.79363 9.95626C8.72274 9.88537 8.63762 9.83033 8.54389 9.79478C8.45016 9.75922 8.34995 9.74396 8.24988 9.75H3.74988Z"/>
<path d="M6.00001 7.5C5.40666 7.5 4.82664 7.32405 4.3333 6.99441C3.83995 6.66477 3.45543 6.19623 3.22837 5.64805C3.0013 5.09987 2.94189 4.49667 3.05765 3.91473C3.17341 3.33279 3.45913 2.79824 3.87869 2.37868C4.29824 1.95912 4.83279 1.6734 5.41474 1.55765C5.99668 1.44189 6.59988 1.5013 7.14806 1.72836C7.69624 1.95543 8.16477 2.33994 8.49442 2.83329C8.82406 3.32664 9.00001 3.90666 9.00001 4.5C8.99911 5.29538 8.68276 6.05792 8.12034 6.62034C7.55792 7.18275 6.79538 7.49911 6.00001 7.5ZM6.00001 3C5.70333 3 5.41332 3.08797 5.16665 3.2528C4.91998 3.41762 4.72772 3.65189 4.61419 3.92598C4.50066 4.20007 4.47095 4.50167 4.52883 4.79264C4.58671 5.08361 4.72957 5.35088 4.93935 5.56066C5.14912 5.77044 5.4164 5.9133 5.70737 5.97118C5.99834 6.02906 6.29994 5.99935 6.57403 5.88582C6.84812 5.77229 7.08239 5.58003 7.24721 5.33336C7.41203 5.08668 7.50001 4.79667 7.50001 4.5C7.49961 4.1023 7.34145 3.721 7.06023 3.43978C6.77901 3.15856 6.39771 3.0004 6.00001 3Z"/>
<path d="M21.5747 3.19189C21.0106 2.61872 20.2492 2.28225 19.4456 2.25108C18.642 2.2199 17.8568 2.49637 17.25 3.02412C16.6432 2.49637 15.858 2.2199 15.0544 2.25108C14.2508 2.28225 13.4894 2.61872 12.9253 3.19189C12.3322 3.79734 12 4.61112 12 5.45865C12 6.30619 12.3322 7.11997 12.9253 7.72542L17.2485 12.105L17.25 12.1032L17.2515 12.1047L21.5747 7.72542C22.1678 7.11997 22.5 6.30619 22.5 5.45865C22.5 4.61112 22.1678 3.79734 21.5747 3.19189ZM20.5065 6.67114L17.2515 9.96912L17.25 9.96754L17.2485 9.96904L13.9935 6.67107C13.6758 6.34736 13.4979 5.91193 13.4979 5.45839C13.4979 5.00485 13.6758 4.56942 13.9935 4.24572C14.3104 3.93761 14.735 3.76524 15.177 3.76524C15.6191 3.76524 16.0437 3.93761 16.3606 4.24572L17.2463 5.15127L17.25 5.14759L17.2537 5.15134L18.1394 4.24579C18.4564 3.93769 18.881 3.76532 19.323 3.76532C19.765 3.76532 20.1896 3.93769 20.5065 4.24579C20.8242 4.5695 21.0021 5.00493 21.0021 5.45847C21.0021 5.912 20.8242 6.34743 20.5065 6.67114Z"/>
</mask>
<path d="M7.49988 23.25H4.49988C4.10242 23.2488 3.72156 23.0904 3.44051 22.8094C3.15946 22.5283 3.00105 22.1475 2.99988 21.75V16.5C2.60242 16.4988 2.22156 16.3404 1.94051 16.0594C1.65946 15.7783 1.50105 15.3975 1.49988 15V10.5C1.49444 10.203 1.54892 9.90801 1.66007 9.63256C1.77121 9.35712 1.93674 9.10691 2.14677 8.89689C2.3568 8.68686 2.60701 8.52133 2.88245 8.41018C3.15789 8.29904 3.45291 8.24456 3.74988 8.25H8.24988C8.54685 8.24456 8.84188 8.29904 9.11732 8.41018C9.39276 8.52133 9.64297 8.68686 9.853 8.89689C10.063 9.10691 10.2286 9.35712 10.3397 9.63256C10.4508 9.90801 10.5053 10.203 10.4999 10.5V15C10.4987 15.3975 10.3403 15.7783 10.0593 16.0594C9.7782 16.3404 9.39735 16.4988 8.99988 16.5V21.75C8.99871 22.1475 8.8403 22.5283 8.55925 22.8094C8.2782 23.0904 7.89735 23.2488 7.49988 23.25ZM3.74988 9.75C3.64982 9.74396 3.54961 9.75922 3.45588 9.79478C3.36215 9.83033 3.27703 9.88537 3.20614 9.95626C3.13525 10.0271 3.08022 10.1123 3.04466 10.206C3.00911 10.2997 2.99384 10.3999 2.99988 10.5V15H4.49988V21.75H7.49988V15H8.99988V10.5C9.00592 10.3999 8.99066 10.2997 8.9551 10.206C8.91955 10.1123 8.86451 10.0271 8.79363 9.95626C8.72274 9.88537 8.63762 9.83033 8.54389 9.79478C8.45016 9.75922 8.34995 9.74396 8.24988 9.75H3.74988Z" fill="#FA541C"/>
<path d="M6.00001 7.5C5.40666 7.5 4.82664 7.32405 4.3333 6.99441C3.83995 6.66477 3.45543 6.19623 3.22837 5.64805C3.0013 5.09987 2.94189 4.49667 3.05765 3.91473C3.17341 3.33279 3.45913 2.79824 3.87869 2.37868C4.29824 1.95912 4.83279 1.6734 5.41474 1.55765C5.99668 1.44189 6.59988 1.5013 7.14806 1.72836C7.69624 1.95543 8.16477 2.33994 8.49442 2.83329C8.82406 3.32664 9.00001 3.90666 9.00001 4.5C8.99911 5.29538 8.68276 6.05792 8.12034 6.62034C7.55792 7.18275 6.79538 7.49911 6.00001 7.5ZM6.00001 3C5.70333 3 5.41332 3.08797 5.16665 3.2528C4.91998 3.41762 4.72772 3.65189 4.61419 3.92598C4.50066 4.20007 4.47095 4.50167 4.52883 4.79264C4.58671 5.08361 4.72957 5.35088 4.93935 5.56066C5.14912 5.77044 5.4164 5.9133 5.70737 5.97118C5.99834 6.02906 6.29994 5.99935 6.57403 5.88582C6.84812 5.77229 7.08239 5.58003 7.24721 5.33336C7.41203 5.08668 7.50001 4.79667 7.50001 4.5C7.49961 4.1023 7.34145 3.721 7.06023 3.43978C6.77901 3.15856 6.39771 3.0004 6.00001 3Z" fill="#FA541C"/>
<path d="M21.5747 3.19189C21.0106 2.61872 20.2492 2.28225 19.4456 2.25108C18.642 2.2199 17.8568 2.49637 17.25 3.02412C16.6432 2.49637 15.858 2.2199 15.0544 2.25108C14.2508 2.28225 13.4894 2.61872 12.9253 3.19189C12.3322 3.79734 12 4.61112 12 5.45865C12 6.30619 12.3322 7.11997 12.9253 7.72542L17.2485 12.105L17.25 12.1032L17.2515 12.1047L21.5747 7.72542C22.1678 7.11997 22.5 6.30619 22.5 5.45865C22.5 4.61112 22.1678 3.79734 21.5747 3.19189ZM20.5065 6.67114L17.2515 9.96912L17.25 9.96754L17.2485 9.96904L13.9935 6.67107C13.6758 6.34736 13.4979 5.91193 13.4979 5.45839C13.4979 5.00485 13.6758 4.56942 13.9935 4.24572C14.3104 3.93761 14.735 3.76524 15.177 3.76524C15.6191 3.76524 16.0437 3.93761 16.3606 4.24572L17.2463 5.15127L17.25 5.14759L17.2537 5.15134L18.1394 4.24579C18.4564 3.93769 18.881 3.76532 19.323 3.76532C19.765 3.76532 20.1896 3.93769 20.5065 4.24579C20.8242 4.5695 21.0021 5.00493 21.0021 5.45847C21.0021 5.912 20.8242 6.34743 20.5065 6.67114Z" fill="#FA541C"/>
<path d="M7.49988 23.25V24.25L7.50282 24.25L7.49988 23.25ZM4.49988 23.25L4.49695 24.25H4.49988V23.25ZM2.99988 21.75H1.99988L1.99989 21.7529L2.99988 21.75ZM2.99988 16.5H3.99988V15.5029L3.00282 15.5L2.99988 16.5ZM1.49988 15H0.499879L0.499887 15.0029L1.49988 15ZM1.49988 10.5H2.49988V10.4908L2.49971 10.4817L1.49988 10.5ZM3.74988 8.25L3.73156 9.24983L3.74072 9.25H3.74988V8.25ZM8.24988 8.25V9.25H8.25905L8.26821 9.24983L8.24988 8.25ZM10.4999 10.5L9.50005 10.4817L9.49988 10.4908V10.5H10.4999ZM10.4999 15L11.4999 15.0029V15H10.4999ZM8.99988 16.5L8.99695 15.5L7.99988 15.5029V16.5H8.99988ZM8.99988 21.75L9.99988 21.7529V21.75H8.99988ZM3.74988 9.75L3.68964 10.7482L3.71973 10.75H3.74988V9.75ZM2.99988 10.5H3.99988V10.4699L3.99807 10.4398L2.99988 10.5ZM2.99988 15H1.99988V16H2.99988V15ZM4.49988 15H5.49988V14H4.49988V15ZM4.49988 21.75H3.49988V22.75H4.49988V21.75ZM7.49988 21.75V22.75H8.49988V21.75H7.49988ZM7.49988 15V14H6.49988V15H7.49988ZM8.99988 15V16H9.99988V15H8.99988ZM8.99988 10.5L8.0017 10.4398L7.99988 10.4699V10.5H8.99988ZM8.24988 9.75V10.75H8.28003L8.31012 10.7482L8.24988 9.75ZM6.00001 7.5V8.5L6.00113 8.5L6.00001 7.5ZM9.00001 4.5L10 4.50112V4.5H9.00001ZM6.00001 3L6.00101 2H6.00001V3ZM7.50001 4.5H8.50001L8.50001 4.499L7.50001 4.5ZM21.5747 3.19189L22.2891 2.49211L22.2875 2.49046L21.5747 3.19189ZM17.25 3.02412L16.5938 3.77866L17.25 4.34942L17.9063 3.77866L17.25 3.02412ZM12.9253 3.19189L12.2125 2.49046L12.2109 2.49211L12.9253 3.19189ZM12.9253 7.72542L12.2109 8.4252L12.2136 8.42793L12.9253 7.72542ZM17.2485 12.105L16.5368 12.8076L17.3108 13.5916L18.0164 12.7456L17.2485 12.105ZM17.25 12.1032L17.9387 11.3782L17.1653 10.6436L16.4821 11.4627L17.25 12.1032ZM17.2515 12.1047L16.5628 12.8297L17.2741 13.5052L17.9632 12.8072L17.2515 12.1047ZM21.5747 7.72542L22.2864 8.42796L22.2891 8.4252L21.5747 7.72542ZM22.5 5.45865H21.5H22.5ZM20.5065 6.67114L21.2182 7.3736L21.2202 7.37155L20.5065 6.67114ZM17.2515 9.96912L16.5273 10.6587L17.2386 11.4057L17.9632 10.6716L17.2515 9.96912ZM17.25 9.96754L17.9742 9.27796L17.2678 8.53603L16.5431 9.26021L17.25 9.96754ZM17.2485 9.96904L16.5368 10.6715L17.2436 11.3877L17.9554 10.6764L17.2485 9.96904ZM13.9935 6.67107L13.2798 7.37148L13.2818 7.37352L13.9935 6.67107ZM13.4979 5.45839H14.4979H13.4979ZM13.9935 4.24572L13.2965 3.52869L13.288 3.5369L13.2798 3.54531L13.9935 4.24572ZM15.177 3.76524V4.76524V3.76524ZM16.3606 4.24572L17.0755 3.54647L17.0667 3.53747L17.0576 3.52869L16.3606 4.24572ZM17.2463 5.15127L16.5315 5.85051L17.2384 6.57329L17.9534 5.85842L17.2463 5.15127ZM17.25 5.14759L17.9643 4.44772L17.2573 3.72619L16.5429 4.44044L17.25 5.14759ZM17.2537 5.15134L16.5394 5.85121L17.2543 6.58081L17.9686 5.85059L17.2537 5.15134ZM18.1394 4.24579L17.4424 3.52877L17.4334 3.53754L17.4246 3.54654L18.1394 4.24579ZM19.323 3.76532V4.76532V3.76532ZM20.5065 4.24579L21.2202 3.54538L21.212 3.53698L21.2036 3.52877L20.5065 4.24579ZM21.0021 5.45847H20.0021H21.0021ZM7.49988 22.25H4.49988V24.25H7.49988V22.25ZM4.50282 22.25C4.36955 22.2496 4.24185 22.1965 4.14762 22.1023L2.73341 23.5165C3.20128 23.9843 3.83528 24.2481 4.49695 24.25L4.50282 22.25ZM4.14762 22.1023C4.05338 22.008 4.00027 21.8803 3.99988 21.7471L1.99989 21.7529C2.00183 22.4146 2.26554 23.0486 2.73341 23.5165L4.14762 22.1023ZM3.99988 21.75V16.5H1.99988V21.75H3.99988ZM3.00282 15.5C2.86955 15.4996 2.74185 15.4465 2.64762 15.3523L1.23341 16.7665C1.70127 17.2343 2.33528 17.4981 2.99695 17.5L3.00282 15.5ZM2.64762 15.3523C2.55338 15.258 2.50027 15.1303 2.49988 14.9971L0.499887 15.0029C0.50183 15.6646 0.765536 16.2986 1.23341 16.7665L2.64762 15.3523ZM2.49988 15V10.5H0.499883V15H2.49988ZM2.49971 10.4817C2.49673 10.3191 2.52656 10.1576 2.58741 10.0068L0.732718 9.25836C0.571277 9.65845 0.492145 10.087 0.500051 10.5183L2.49971 10.4817ZM2.58741 10.0068C2.64826 9.85597 2.73889 9.71898 2.85388 9.60399L1.43966 8.18978C1.1346 8.49485 0.894159 8.85828 0.732718 9.25836L2.58741 10.0068ZM2.85388 9.60399C2.96886 9.48901 3.10585 9.39838 3.25665 9.33753L2.50825 7.48283C2.10816 7.64428 1.74473 7.88471 1.43966 8.18978L2.85388 9.60399ZM3.25665 9.33753C3.40745 9.27668 3.56897 9.24685 3.73156 9.24983L3.76821 7.25017C3.33685 7.24226 2.90833 7.32139 2.50825 7.48283L3.25665 9.33753ZM3.74988 9.25H8.24988V7.25H3.74988V9.25ZM8.26821 9.24983C8.4308 9.24685 8.59232 9.27668 8.74312 9.33753L9.49152 7.48283C9.09144 7.32139 8.66291 7.24226 8.23156 7.25017L8.26821 9.24983ZM8.74312 9.33753C8.89392 9.39838 9.0309 9.48901 9.14589 9.60399L10.5601 8.18978C10.255 7.88471 9.89161 7.64428 9.49152 7.48283L8.74312 9.33753ZM9.14589 9.60399C9.26088 9.71898 9.3515 9.85597 9.41235 10.0068L11.267 9.25836C11.1056 8.85828 10.8652 8.49485 10.5601 8.18978L9.14589 9.60399ZM9.41235 10.0068C9.4732 10.1576 9.50303 10.3191 9.50005 10.4817L11.4997 10.5183C11.5076 10.087 11.4285 9.65845 11.267 9.25836L9.41235 10.0068ZM9.49988 10.5V15H11.4999V10.5H9.49988ZM9.49989 14.9971C9.49949 15.1303 9.44638 15.258 9.35215 15.3523L10.7664 16.7665C11.2342 16.2986 11.4979 15.6646 11.4999 15.0029L9.49989 14.9971ZM9.35215 15.3523C9.25791 15.4465 9.13021 15.4996 8.99695 15.5L9.00282 17.5C9.66448 17.4981 10.2985 17.2343 10.7664 16.7665L9.35215 15.3523ZM7.99988 16.5V21.75H9.99988V16.5H7.99988ZM7.99989 21.7471C7.9995 21.8803 7.94638 22.008 7.85215 22.1023L9.26636 23.5165C9.73423 23.0486 9.99793 22.4146 9.99988 21.7529L7.99989 21.7471ZM7.85215 22.1023C7.75791 22.1965 7.63022 22.2496 7.49695 22.25L7.50282 24.25C8.16448 24.2481 8.79849 23.9843 9.26636 23.5165L7.85215 22.1023ZM3.81012 8.75182C3.56884 8.73725 3.32722 8.77406 3.10121 8.85979L3.81055 10.7298C3.772 10.7444 3.73079 10.7507 3.68964 10.7482L3.81012 8.75182ZM3.10121 8.85979C2.8752 8.94552 2.66996 9.07823 2.49903 9.24915L3.91325 10.6634C3.88409 10.6925 3.84909 10.7151 3.81055 10.7298L3.10121 8.85979ZM2.49903 9.24915C2.32811 9.42007 2.1954 9.62532 2.10967 9.85133L3.97965 10.5607C3.96503 10.5992 3.9424 10.6342 3.91325 10.6634L2.49903 9.24915ZM2.10967 9.85133C2.02394 10.0773 1.98714 10.319 2.0017 10.5602L3.99807 10.4398C4.00055 10.4809 3.99427 10.5221 3.97965 10.5607L2.10967 9.85133ZM1.99988 10.5V15H3.99988V10.5H1.99988ZM2.99988 16H4.49988V14H2.99988V16ZM3.49988 15V21.75H5.49988V15H3.49988ZM4.49988 22.75H7.49988V20.75H4.49988V22.75ZM8.49988 21.75V15H6.49988V21.75H8.49988ZM7.49988 16H8.99988V14H7.49988V16ZM9.99988 15V10.5H7.99988V15H9.99988ZM9.99807 10.5602C10.0126 10.319 9.97583 10.0773 9.8901 9.85133L8.02011 10.5607C8.00549 10.5221 7.99922 10.4809 8.0017 10.4398L9.99807 10.5602ZM9.8901 9.85133C9.80437 9.62532 9.67166 9.42008 9.50073 9.24915L8.08652 10.6634C8.05736 10.6342 8.03473 10.5992 8.02011 10.5607L9.8901 9.85133ZM9.50073 9.24915C9.32981 9.07822 9.12456 8.94552 8.89856 8.85979L8.18922 10.7298C8.15068 10.7151 8.11567 10.6925 8.08652 10.6634L9.50073 9.24915ZM8.89856 8.85979C8.67255 8.77406 8.43092 8.73725 8.18964 8.75182L8.31012 10.7482C8.26897 10.7507 8.22776 10.7444 8.18922 10.7298L8.89856 8.85979ZM8.24988 8.75H3.74988V10.75H8.24988V8.75ZM6.00001 6.5C5.60444 6.5 5.21776 6.3827 4.88887 6.16294L3.77773 7.82588C4.43552 8.26541 5.20888 8.5 6.00001 8.5V6.5ZM4.88887 6.16294C4.55997 5.94318 4.30362 5.63082 4.15225 5.26537L2.30449 6.03074C2.60724 6.76164 3.11993 7.38635 3.77773 7.82588L4.88887 6.16294ZM4.15225 5.26537C4.00087 4.89992 3.96127 4.49778 4.03844 4.10982L2.07687 3.71964C1.92252 4.49556 2.00174 5.29983 2.30449 6.03074L4.15225 5.26537ZM4.03844 4.10982C4.11561 3.72186 4.30609 3.36549 4.58579 3.08579L3.17158 1.67157C2.61217 2.23098 2.23121 2.94372 2.07687 3.71964L4.03844 4.10982ZM4.58579 3.08579C4.8655 2.80608 5.22186 2.6156 5.60983 2.53843L5.21965 0.57686C4.44372 0.731201 3.73099 1.11216 3.17158 1.67157L4.58579 3.08579ZM5.60983 2.53843C5.99779 2.46126 6.39992 2.50087 6.76537 2.65224L7.53074 0.804483C6.79984 0.501733 5.99557 0.422519 5.21965 0.57686L5.60983 2.53843ZM6.76537 2.65224C7.13083 2.80362 7.44318 3.05996 7.66295 3.38886L9.32588 2.27772C8.88636 1.61992 8.26164 1.10723 7.53074 0.804483L6.76537 2.65224ZM7.66295 3.38886C7.88271 3.71776 8.00001 4.10444 8.00001 4.5H10C10 3.70888 9.76541 2.93552 9.32588 2.27772L7.66295 3.38886ZM8.00001 4.49888C7.99941 5.02943 7.78839 5.53807 7.41323 5.91323L8.82745 7.32744C9.57712 6.57776 9.99882 5.56133 10 4.50112L8.00001 4.49888ZM7.41323 5.91323C7.03808 6.28838 6.52943 6.49941 5.99888 6.5L6.00113 8.5C7.06133 8.49881 8.07777 8.07712 8.82745 7.32744L7.41323 5.91323ZM6.00001 2C5.50555 2 5.0222 2.14662 4.61108 2.42133L5.72222 4.08427C5.80445 4.02933 5.90112 4 6.00001 4V2ZM4.61108 2.42133C4.19996 2.69603 3.87953 3.08648 3.69031 3.54329L5.53807 4.30866C5.57591 4.2173 5.64 4.13921 5.72222 4.08427L4.61108 2.42133ZM3.69031 3.54329C3.50109 4.00011 3.45158 4.50277 3.54804 4.98773L5.50961 4.59755C5.49032 4.50056 5.50022 4.40002 5.53807 4.30866L3.69031 3.54329ZM3.54804 4.98773C3.64451 5.47268 3.88261 5.91814 4.23224 6.26777L5.64645 4.85355C5.57653 4.78363 5.52891 4.69454 5.50961 4.59755L3.54804 4.98773ZM4.23224 6.26777C4.58187 6.6174 5.02733 6.8555 5.51228 6.95197L5.90246 4.99039C5.80547 4.9711 5.71638 4.92348 5.64645 4.85355L4.23224 6.26777ZM5.51228 6.95197C5.99723 7.04843 6.4999 6.99892 6.95671 6.8097L6.19135 4.96194C6.09998 4.99979 5.99945 5.00969 5.90246 4.99039L5.51228 6.95197ZM6.95671 6.8097C7.41353 6.62048 7.80398 6.30005 8.07868 5.88893L6.41574 4.77779C6.3608 4.86001 6.28271 4.9241 6.19135 4.96194L6.95671 6.8097ZM8.07868 5.88893C8.35338 5.4778 8.50001 4.99446 8.50001 4.5H6.50001C6.50001 4.59889 6.47068 4.69556 6.41574 4.77779L8.07868 5.88893ZM8.50001 4.499C8.49934 3.83643 8.23584 3.20118 7.76733 2.73267L6.35312 4.14689C6.44705 4.24081 6.49987 4.36817 6.50001 4.501L8.50001 4.499ZM7.76733 2.73267C7.29882 2.26416 6.66358 2.00066 6.00101 2L5.99901 4C6.13184 4.00013 6.25919 4.05296 6.35312 4.14689L7.76733 2.73267ZM22.2875 2.49046C21.5448 1.73585 20.5423 1.29287 19.4844 1.25183L19.4069 3.25032C19.9561 3.27163 20.4765 3.50159 20.862 3.89333L22.2875 2.49046ZM19.4844 1.25183C18.4264 1.21078 17.3926 1.57477 16.5938 2.26957L17.9063 3.77866C18.321 3.41797 18.8576 3.22902 19.4069 3.25032L19.4844 1.25183ZM17.9063 2.26957C17.1074 1.57477 16.0736 1.21078 15.0156 1.25183L15.0932 3.25032C15.6424 3.22902 16.179 3.41797 16.5938 3.77866L17.9063 2.26957ZM15.0156 1.25183C13.9577 1.29287 12.9552 1.73585 12.2126 2.49046L13.638 3.89333C14.0235 3.50159 14.544 3.27163 15.0932 3.25032L15.0156 1.25183ZM12.2109 2.49211C11.4347 3.28447 11 4.34947 11 5.45865H13C13 4.87276 13.2296 4.31021 13.6396 3.89167L12.2109 2.49211ZM11 5.45865C11 6.56784 11.4347 7.63284 12.2109 8.4252L13.6396 7.02564C13.2296 6.6071 13 6.04455 13 5.45865H11ZM12.2136 8.42793L16.5368 12.8076L17.9602 11.4025L13.637 7.02291L12.2136 8.42793ZM18.0164 12.7456L18.0179 12.7438L16.4821 11.4627L16.4806 11.4645L18.0164 12.7456ZM16.5613 12.8283L16.5628 12.8297L17.9402 11.3796L17.9387 11.3782L16.5613 12.8283ZM17.9632 12.8072L22.2864 8.42796L20.8631 7.02288L16.5399 11.4021L17.9632 12.8072ZM22.2891 8.4252C23.0653 7.63284 23.5 6.56784 23.5 5.45865H21.5C21.5 6.04455 21.2704 6.6071 20.8604 7.02564L22.2891 8.4252ZM23.5 5.45865C23.5 4.34947 23.0653 3.28447 22.2891 2.49211L20.8604 3.89167C21.2704 4.31021 21.5 4.87276 21.5 5.45865H23.5ZM19.7948 5.96869L16.5398 9.26666L17.9632 10.6716L21.2182 7.3736L19.7948 5.96869ZM17.9757 9.27954L17.9742 9.27796L16.5258 10.6571L16.5273 10.6587L17.9757 9.27954ZM16.5431 9.26021L16.5416 9.26171L17.9554 10.6764L17.9569 10.6749L16.5431 9.26021ZM17.9602 9.26659L14.7052 5.96861L13.2818 7.37352L16.5368 10.6715L17.9602 9.26659ZM14.7073 5.97065C14.5731 5.83391 14.4979 5.64998 14.4979 5.45839H12.4979C12.4979 6.17388 12.7786 6.86081 13.2798 7.37148L14.7073 5.97065ZM14.4979 5.45839C14.4979 5.26681 14.5731 5.08287 14.7073 4.94613L13.2798 3.54531C12.7786 4.05598 12.4979 4.7429 12.4979 5.45839H14.4979ZM14.6906 4.96274C14.8208 4.83609 14.9954 4.76524 15.177 4.76524V2.76524C14.4747 2.76524 13.8001 3.03913 13.2965 3.52869L14.6906 4.96274ZM15.177 4.76524C15.3587 4.76524 15.5333 4.83609 15.6635 4.96274L17.0576 3.52869C16.554 3.03913 15.8794 2.76524 15.177 2.76524V4.76524ZM15.6457 4.94496L16.5315 5.85051L17.9612 4.45202L17.0755 3.54647L15.6457 4.94496ZM17.9534 5.85842L17.9571 5.85474L16.5429 4.44044L16.5393 4.44411L17.9534 5.85842ZM16.5357 5.84746L16.5394 5.85121L17.968 4.45147L17.9643 4.44772L16.5357 5.84746ZM17.9686 5.85059L18.8543 4.94504L17.4246 3.54654L16.5388 4.45209L17.9686 5.85059ZM18.8365 4.96281C18.9668 4.83617 19.1413 4.76532 19.323 4.76532V2.76532C18.6206 2.76532 17.946 3.0392 17.4424 3.52877L18.8365 4.96281ZM19.323 4.76532C19.5047 4.76532 19.6792 4.83617 19.8095 4.96281L21.2036 3.52877C20.7 3.0392 20.0253 2.76532 19.323 2.76532V4.76532ZM19.7928 4.9462C19.927 5.08294 20.0021 5.26688 20.0021 5.45847H22.0021C22.0021 4.74298 21.7214 4.05605 21.2202 3.54538L19.7928 4.9462ZM20.0021 5.45847C20.0021 5.65005 19.927 5.83399 19.7928 5.97073L21.2202 7.37155C21.7214 6.86088 22.0021 6.17396 22.0021 5.45847H20.0021Z" fill="#FA541C" mask="url(#path-1-inside-1_1381_61713)"/>
</svg>
